<svg width="219" height="247" viewBox="0 0 219 247" fill="none" xmlns="http://www.w3.org/2000/svg">
<path d="M178.118 33.6807C210.46 52.9082 137.571 130.548 137.571 130.548C137.571 130.548 183.687 104.134 191.886 134.03C198.235 157.182 155.44 183.357 128.547 197.254C128.547 197.254 141.907 213.663 133.191 226.706C116.754 251.304 -4.2027 189.196 12.7306 157.702C20.7108 142.86 41.8822 152.248 41.8822 152.248C49.1642 107.998 69.9838 30.858 105.596 57.0558C119.429 43.6726 131.426 48.4978 136.753 55.0645C149.829 37.9652 164.837 25.785 178.118 33.6807Z" fill="white"/>
<path d="M178.118 33.6807C210.46 52.9082 137.571 130.548 137.571 130.548C137.571 130.548 183.687 104.134 191.886 134.03C198.235 157.182 155.44 183.357 128.547 197.254C128.547 197.254 141.907 213.663 133.191 226.706C116.754 251.304 -4.2027 189.196 12.7306 157.702C20.7108 142.86 41.8822 152.248 41.8822 152.248C49.1642 107.998 69.9838 30.858 105.596 57.0558C119.429 43.6726 131.426 48.4978 136.753 55.0645C149.829 37.9652 164.837 25.785 178.118 33.6807Z" fill="#00503F" fill-opacity="0.08"/>
<path fill-rule="evenodd" clip-rule="evenodd" d="M159.93 39.384C165.991 35.7752 171.003 35.3812 175.528 38.0714C178.457 39.8125 180.031 42.0567 180.78 44.7516C181.575 47.6081 181.52 51.2904 180.488 55.7995C178.41 64.8784 172.737 75.7709 165.733 86.5448C158.796 97.2175 150.835 107.351 144.578 114.846C141.456 118.585 138.773 121.649 136.875 123.774C135.926 124.837 135.174 125.663 134.662 126.221C134.406 126.5 134.21 126.712 134.08 126.852C134.029 126.908 133.987 126.952 133.957 126.985L133.9 127.045L133.892 127.054L133.891 127.055C133.891 127.055 133.891 127.055 133.893 127.057L140.061 134.966C140.066 134.977 140.066 134.977 140.066 134.977L140.067 134.977L140.068 134.976L140.082 134.968C140.097 134.959 140.123 134.944 140.16 134.924C140.234 134.883 140.349 134.818 140.504 134.733C140.814 134.564 141.281 134.312 141.884 133.998C143.092 133.37 144.84 132.498 146.967 131.538C151.251 129.604 156.933 127.38 162.76 126.049C168.689 124.696 174.184 124.405 178.409 125.738C182.235 126.945 185.402 129.575 186.999 135.4C188.092 139.386 187.216 143.9 184.107 149.107C180.979 154.344 175.86 159.797 169.435 165.208C156.608 176.013 139.587 185.825 126.242 192.722C120.346 195.769 114.948 198.385 111.024 200.24C109.064 201.167 107.474 201.903 106.377 202.405C105.829 202.656 105.404 202.849 105.118 202.978C104.975 203.043 104.866 203.092 104.795 203.124L104.696 203.168L104.691 203.17C104.691 203.17 104.691 203.17 106.734 207.829C108.776 212.487 108.776 212.487 108.777 212.487L108.777 212.487L108.779 212.486L108.901 212.432C108.98 212.396 109.095 212.344 109.246 212.276C109.547 212.14 109.988 211.94 110.553 211.681C111.682 211.164 113.31 210.411 115.311 209.465C118.412 207.999 122.418 206.065 126.87 203.819C127.719 205.241 128.651 207.009 129.422 208.975C131.423 214.07 131.972 219.405 128.988 223.871C128.097 225.204 126.124 226.529 122.004 227.034C117.931 227.534 112.535 227.111 106.121 225.743C93.3382 223.016 77.6678 216.79 62.8661 208.751C48.046 200.702 34.5075 191.06 25.7965 181.733C21.4296 177.057 18.5175 172.715 17.1234 168.933C15.7687 165.257 15.9397 162.435 17.1866 160.116C19.769 155.313 24.4442 154.066 29.8895 154.492C32.2148 154.673 34.4284 155.161 36.2072 155.668C35.3372 161.322 34.6937 166.316 34.272 170.322L44.3522 171.362C44.8526 166.608 45.691 160.302 46.8821 153.064C50.5 131.08 57.4296 101.331 67.6588 80.4774C72.8241 69.9473 78.4506 62.492 84.2244 59.0318C86.9902 57.3742 89.719 56.6731 92.5238 56.892C94.0732 57.0129 95.7707 57.4248 97.6234 58.2369C90.2267 67.1696 82.8046 80.7302 75.7575 100.48L85.2969 103.896C93.5145 80.8656 101.854 67.7378 109.103 60.7241C115.245 54.7823 120.366 53.4261 124.017 53.6659C126.275 53.8142 128.294 54.592 129.964 55.7019C121.452 67.486 113.947 80.8448 108.439 91.5411C105.378 97.4855 102.911 102.653 101.207 106.34C100.354 108.184 99.6918 109.66 99.2405 110.679C99.0149 111.188 98.842 111.584 98.7244 111.854C98.6657 111.99 98.6207 112.094 98.5899 112.165L98.5544 112.248L98.5419 112.277L98.541 112.28C98.5407 112.28 98.5404 112.281 103.197 114.278C107.854 116.274 107.854 116.275 107.854 116.275L107.855 116.272L107.861 116.257L107.89 116.189C107.917 116.128 107.957 116.035 108.011 115.91C108.119 115.661 108.283 115.288 108.498 114.801C108.929 113.828 109.568 112.403 110.396 110.613C112.051 107.032 114.454 101.998 117.436 96.2064C123.423 84.58 131.651 70.0836 140.766 58.1641C147.165 49.7969 153.714 43.0849 159.93 39.384ZM136.192 47.6196C141.96 40.6464 148.241 34.5126 154.787 30.6149C162.819 25.8327 171.951 24.0845 180.707 29.29C185.864 32.3557 189.088 36.7438 190.543 41.975C191.952 47.0447 191.619 52.5825 190.366 58.056C187.873 68.9423 181.388 81.065 174.212 92.1044C168.153 101.426 161.394 110.284 155.601 117.417C157.212 116.934 158.868 116.49 160.547 116.107C167.173 114.594 174.744 113.886 181.472 116.009C188.598 118.257 194.27 123.537 196.772 132.659C198.853 140.249 196.761 147.689 192.792 154.336C188.84 160.952 182.77 167.253 175.928 173.016C163.869 183.174 148.622 192.31 135.904 199.127C136.885 200.821 137.942 202.886 138.852 205.203C141.353 211.573 143.126 220.963 137.395 229.54C134.176 234.357 128.773 236.471 123.198 237.155C117.577 237.844 110.958 237.204 103.986 235.717C89.9955 232.733 73.403 226.076 58.0274 217.726C42.6704 209.386 28.1173 199.134 18.3977 188.727C13.5493 183.535 9.66135 178.05 7.61748 172.504C5.53433 166.852 5.28756 160.843 8.27398 155.289C13.6718 145.249 23.5724 143.769 30.7079 144.327C33.371 144.535 35.8443 145.026 37.8948 145.557C41.7879 123.952 48.5969 96.3246 58.5713 75.9906C63.9728 64.9792 70.6836 55.2959 79.0572 50.2777C83.3649 47.696 88.1622 46.3229 93.341 46.727C97.3095 47.0367 101.253 48.37 105.155 50.661C111.837 45.2301 118.521 43.0855 124.711 43.492C129.194 43.7864 133.082 45.3997 136.192 47.6196ZM78.5115 161.935C80.7026 153.651 85.123 142.116 91.8496 133.617L83.9273 127.284C75.9803 137.324 71.0911 150.365 68.7162 159.345L78.5115 161.935ZM102.004 172.789C106.942 163.126 111.223 155.047 118.184 146.975L110.536 140.309C102.693 149.404 97.9357 158.477 92.9919 168.152L102.004 172.789Z" fill="#00503F"/>
</svg>
