<svg width="425" height="481" viewBox="0 0 425 481" fill="none" xmlns="http://www.w3.org/2000/svg">
<path d="M79.9101 62.4213C15.2264 99.0314 155.964 253.922 155.964 253.922C155.964 253.922 65.975 200.488 48.5364 258.87C35.0313 304.084 118.469 356.935 171.011 385.141C171.011 385.141 143.938 416.877 160.61 442.776C192.053 491.618 433.556 373.934 401.421 311.542C386.276 282.138 344.067 299.826 344.067 299.826C331.527 212.738 293.616 60.6339 222.182 110.809C195.418 84.0661 171.52 93.1188 160.724 105.82C135.608 71.8108 106.472 47.3875 79.9101 62.4213Z" fill="white"/>
<path d="M79.9101 62.4213C15.2264 99.0314 155.964 253.922 155.964 253.922C155.964 253.922 65.975 200.488 48.5364 258.87C35.0313 304.084 118.469 356.935 171.011 385.141C171.011 385.141 143.938 416.877 160.61 442.776C192.053 491.618 433.556 373.934 401.421 311.542C386.276 282.138 344.067 299.826 344.067 299.826C331.527 212.738 293.616 60.6339 222.182 110.809C195.418 84.0661 171.52 93.1188 160.724 105.82C135.608 71.8108 106.472 47.3875 79.9101 62.4213Z" fill="#00503F" fill-opacity="0.08"/>
<path fill-rule="evenodd" clip-rule="evenodd" d="M115.598 74.2447C103.776 66.9524 93.8921 66.0053 84.8419 71.1276C78.9845 74.4428 75.7829 78.7921 74.1902 84.0548C72.502 89.6329 72.4561 96.861 74.3072 105.745C78.0342 123.634 88.7852 145.207 102.17 166.593C115.429 187.778 130.731 207.941 142.778 222.864C148.789 230.311 153.96 236.417 157.621 240.654C159.451 242.771 160.902 244.42 161.89 245.532C162.384 246.088 162.762 246.511 163.013 246.791C163.113 246.901 163.192 246.99 163.252 247.055L163.361 247.176L163.376 247.192L163.377 247.194C163.377 247.194 163.378 247.195 163.373 247.199L150.862 262.506C150.851 262.527 150.851 262.527 150.851 262.527L150.85 262.527L150.847 262.525L150.821 262.509C150.791 262.492 150.739 262.461 150.667 262.42C150.524 262.336 150.298 262.206 149.996 262.034C149.391 261.69 148.48 261.18 147.301 260.544C144.941 259.27 141.525 257.496 137.364 255.539C128.982 251.596 117.851 247.033 106.397 244.22C94.7439 241.358 83.9014 240.597 75.501 243.066C67.8937 245.302 61.5284 250.353 58.1303 261.729C55.8051 269.514 57.3481 278.402 63.2729 288.728C69.2323 299.114 79.1164 309.992 91.5811 320.835C116.468 342.484 149.679 362.33 175.751 376.326C187.271 382.51 197.823 387.833 205.496 391.609C209.331 393.496 212.44 394.994 214.586 396.018C215.658 396.53 216.489 396.923 217.049 397.187C217.329 397.319 217.541 397.418 217.681 397.484L217.875 397.574L217.884 397.578C217.884 397.578 217.884 397.578 213.655 406.65C209.427 415.721 209.427 415.721 209.426 415.721L209.425 415.72L209.421 415.718L209.184 415.607C209.029 415.535 208.803 415.429 208.508 415.29C207.919 415.013 207.057 414.605 205.952 414.077C203.742 413.023 200.559 411.489 196.644 409.563C190.581 406.579 182.749 402.645 174.049 398.083C172.312 400.843 170.399 404.28 168.792 408.111C164.629 418.04 163.322 428.492 169.031 437.36C170.734 440.005 174.576 442.675 182.693 443.809C190.718 444.931 201.393 444.289 214.12 441.826C239.482 436.919 270.694 425.243 300.265 409.982C329.873 394.701 357.016 376.248 374.611 358.247C383.431 349.223 389.364 340.803 392.275 333.429C395.104 326.262 394.884 320.718 392.518 316.124C387.617 306.609 378.434 304 367.661 304.646C363.06 304.922 358.668 305.803 355.133 306.735C356.616 317.862 357.679 327.683 358.345 335.56L338.391 337.251C337.601 327.903 336.208 315.5 334.156 301.255C327.926 257.987 315.478 199.367 296.141 158.089C286.377 137.245 275.574 122.419 264.314 115.429C258.92 112.08 253.559 110.609 248.01 110.942C244.944 111.125 241.574 111.874 237.881 113.404C252.119 131.19 266.215 158.059 279.311 197.061L260.327 203.434C245.054 157.953 229.128 131.902 215.102 117.886C203.219 106.013 193.16 103.174 185.938 103.518C181.472 103.73 177.452 105.187 174.108 107.307C190.428 130.728 204.698 157.204 215.131 178.385C220.93 190.157 225.588 200.384 228.8 207.678C230.407 211.327 231.654 214.245 232.503 216.26C232.927 217.268 233.252 218.051 233.473 218.586C233.583 218.853 233.668 219.059 233.726 219.201L233.792 219.364L233.816 219.422L233.818 219.426C233.818 219.428 233.819 219.429 224.538 223.186C215.256 226.943 215.257 226.943 215.257 226.944L215.254 226.938L215.242 226.908L215.188 226.775C215.138 226.654 215.063 226.469 214.961 226.222C214.757 225.729 214.451 224.991 214.046 224.029C213.235 222.105 212.031 219.286 210.471 215.745C207.351 208.659 202.814 198.697 197.165 187.229C185.824 164.205 170.175 135.471 152.667 111.764C140.377 95.122 127.721 81.723 115.598 74.2447ZM162.143 91.2301C151.04 77.3455 138.888 65.0906 126.12 57.2144C110.455 47.5511 92.49 43.8035 74.9779 53.715C64.6644 59.5524 58.1145 68.0518 55.0229 78.2672C52.0268 88.167 52.4557 99.0461 54.7027 109.831C59.1716 131.281 71.4768 155.296 85.1912 177.209C96.7718 195.712 109.752 213.329 120.899 227.529C117.735 226.525 114.483 225.596 111.182 224.786C98.1581 221.587 83.2336 219.936 69.8565 223.868C55.6862 228.033 44.2634 238.196 38.9422 256.011C34.5148 270.833 38.3372 285.506 45.9006 298.688C53.4294 311.809 65.1565 324.384 78.4307 335.932C101.827 356.284 131.563 374.741 156.399 388.562C154.392 391.852 152.218 395.866 150.324 400.382C145.119 412.796 141.226 431.161 152.189 448.191C158.347 457.757 168.929 462.094 179.913 463.628C190.988 465.176 204.087 464.15 217.921 461.473C245.68 456.102 278.731 443.615 309.449 427.762C340.13 411.928 369.302 392.314 388.934 372.228C398.727 362.209 406.635 351.579 410.903 340.767C415.253 329.747 415.991 317.964 410.323 306.96C400.079 287.072 380.585 283.823 366.468 284.67C361.199 284.986 356.293 285.865 352.221 286.835C345.431 244.302 333.133 189.849 314.278 149.599C304.068 127.803 291.215 108.567 274.885 98.4287C266.484 93.213 257.065 90.3519 246.819 90.9653C238.968 91.4353 231.122 93.9148 223.321 98.2754C210.348 87.3859 197.235 82.9454 184.992 83.5283C176.125 83.9505 168.378 86.9815 162.143 91.2301ZM271.312 317.567C267.329 301.233 259.078 278.444 246.146 261.532L262.058 249.378C277.337 269.357 286.451 295.119 290.768 312.823L271.312 317.567ZM224.457 338.051C215.106 318.916 206.986 302.914 193.574 286.832L208.958 274.016C224.07 292.136 233.089 310.107 242.451 329.264L224.457 338.051Z" fill="#00503F"/>
</svg>
