<svg width="177" height="176" viewBox="0 0 177 176" fill="none" xmlns="http://www.w3.org/2000/svg">
<path d="M140.747 100.646C145.82 140.138 80.2058 158.038 65.2458 120.721C65.2458 120.721 85.4549 118.531 105.927 113.087C126.398 107.644 140.747 100.646 140.747 100.646Z" fill="white"/>
<path d="M140.747 100.646C145.82 140.138 80.2058 158.038 65.2458 120.721C65.2458 120.721 85.4549 118.531 105.927 113.087C126.398 107.644 140.747 100.646 140.747 100.646Z" fill="#00503F" fill-opacity="0.08"/>
<path d="M168.683 83.7484C172.928 132.672 133.856 167.402 89.6767 167.99C45.4973 168.578 15.3891 142.882 8.78831 97.7038C2.18756 52.5258 39.72 11.9387 81.4493 8.29663C123.179 4.65455 164.438 34.8243 168.683 83.7484Z" fill="white"/>
<path d="M168.683 83.7484C172.928 132.672 133.856 167.402 89.6767 167.99C45.4973 168.578 15.3891 142.882 8.78831 97.7038C2.18756 52.5258 39.72 11.9387 81.4493 8.29663C123.179 4.65455 164.438 34.8243 168.683 83.7484Z" fill="#00503F" fill-opacity="0.08"/>
<path d="M51.0731 93.5478C55.7654 85.7831 72.0696 76.175 85.3275 85.6606M142.408 72.7531C134.272 67.2254 118.262 69.3312 112.22 80.9715M65.2458 120.721C80.2058 158.038 145.82 140.138 140.747 100.646C140.747 100.646 126.398 107.644 105.927 113.087C85.4549 118.531 65.2458 120.721 65.2458 120.721ZM168.683 83.7484C172.928 132.672 133.856 167.402 89.6767 167.99C45.4973 168.578 15.3891 142.882 8.78831 97.7038C2.18756 52.5258 39.72 11.9387 81.4493 8.29663C123.179 4.65455 164.438 34.8243 168.683 83.7484Z" stroke="#121212" stroke-width="16"/>
</svg>
