<svg width="120" height="120" viewBox="0 0 120 120" fill="none" xmlns="http://www.w3.org/2000/svg">
<rect width="120" height="119.255" transform="translate(0 0.372559)" fill="white"/>
<path fill-rule="evenodd" clip-rule="evenodd" d="M34.105 20.3024C30.5666 21.5112 30.677 21.4012 30.0688 24.0386C29.0183 28.4343 30.5664 66.8961 32.0592 74.5885C32.4463 76.4567 34.7684 77.0061 40.0208 76.5116C42.6194 76.2918 45.8264 76.2918 47.1533 76.5116C50.5812 77.116 51.5209 76.7314 51.9079 74.3138C52.4055 71.017 58.9849 42.9399 60.2013 32.1157C60.4224 30.0277 59.5931 27.9398 57.9897 26.5661C57.9897 26.5661 46.2133 16.1265 34.105 20.3024ZM50.4706 26.2365C51.5211 26.5112 51.7422 26.8958 51.4657 27.9947C51.2998 28.764 44.278 65.6324 43.6146 69.4236C43.2828 71.5115 43.2277 71.5115 40.9608 71.3467L38.6386 71.1819C37.8645 54.4235 37.4777 42.5003 35.8191 29.3134C35.5979 27.665 36.7588 26.1815 38.4175 25.9068C42.3983 25.3024 46.711 25.1925 50.4706 26.2365ZM70.485 36.9508C68.9922 37.7201 68.7713 38.3245 66.7809 47.2806C62.413 67.0061 61.5836 72.7753 62.7999 74.3138C64.5139 76.4567 73.5813 79.2589 78.0044 79.0391C79.9395 78.9292 81.7086 77.7754 82.5933 76.0721C88.6198 64.039 92.2688 56.951 95.3097 48.819C95.9732 47.0608 95.4757 45.0828 94.0382 43.874C87.8458 38.4343 74.8529 34.6431 70.485 36.9508ZM82.1511 42.5553C87.8458 44.6982 88.7304 45.1927 88.1775 45.852C87.7905 46.3466 75.7928 73.4346 75.1846 74.0391C74.5211 74.7533 69.9876 73.3797 70.3746 72.6105C71.0381 71.2918 73.4707 60.9071 75.4611 50.4125C76.5668 44.5333 77.4514 41.1817 77.8937 41.1817C78.336 41.2366 80.216 41.841 82.1511 42.5553ZM32.6121 81.6216C17.7947 86.8414 24.2082 100.852 41.4584 100.852C51.7421 100.852 57.437 97.281 57.1053 93.1052C56.7183 88.5447 41.6795 78.4347 32.6121 81.6216ZM66.1726 85.5776C55.336 90.9073 60.9201 100.303 74.9082 100.303C83.6438 100.303 90.4443 94.7535 87.2928 90.248C84.5284 86.4018 70.7616 83.3248 66.1726 85.5776ZM46.7108 88.4348C51.2998 91.6766 50.5259 93.6546 43.836 95.6876C36.7037 97.8305 31.0088 96.0172 31.0088 92.5007C30.9535 90.8524 37.367 81.8414 46.7108 88.4348ZM76.7879 89.1491C83.5332 92.9953 79.2759 98.6547 71.5355 96.1272C67.6653 94.8634 66.7807 92.281 69.1582 89.259C70.9274 86.8414 72.6966 86.8414 76.7879 89.1491Z" fill="#576E22"/>
</svg>
