<svg width="120" height="120" viewBox="0 0 120 120" fill="none" xmlns="http://www.w3.org/2000/svg">
<rect width="120" height="120" fill="white"/>
<path d="M72.8011 19.8089C74.952 15.4354 72.1558 12.2808 69.1804 15.7581C66.9937 18.3391 63.9109 25.688 64.4486 27.086C65.7033 30.2765 69.1446 27.2653 72.8011 19.8089Z" fill="#576E22"/>
<path d="M51.3999 28.6271C53.6583 29.344 54.4471 28.0176 54.1962 23.9309C53.6584 15.8651 51.1849 12.5313 46.9548 14.2161C44.9473 15.0048 48.8905 27.8384 51.3999 28.6271Z" fill="#576E22"/>
<path d="M28.7791 30.7071C33.8695 34.507 37.4183 36.1918 39.2107 35.5466C41.4333 34.7579 41.075 34.0051 37.0241 30.8146C31.862 26.6921 29.0299 25.4733 26.3054 26.1902C24.3696 26.6921 24.9792 27.8392 28.7791 30.7071Z" fill="#576E22"/>
<path d="M72.7641 32.0688C71.5452 33.3952 71.5453 33.431 72.4774 34.1121C75.1301 36.0479 77.9622 34.5065 89.1826 24.935C92.1938 22.354 87.2108 20.3106 83.6977 22.7125C81.8695 23.9671 74.198 30.5273 72.7641 32.0688Z" fill="#576E22"/>
<path d="M115.425 96.6668C114.17 95.6272 113.346 93.6914 112.987 90.9311C112.736 89.0312 108.721 57.6283 106.893 49.3474C105.388 42.4646 101.158 39.2024 97.7878 39.0232C95.6728 38.9156 94.4539 40.3137 93.5935 39.776C91.2634 38.3062 90.6181 37.6251 88.3238 37.8402C87.2483 37.9119 84.8465 38.5571 84.022 39.2741C83.4843 39.7043 82.8033 39.7043 81.2977 39.3099C73.913 37.3383 70.6507 44.3645 73.9846 55.0831C75.8845 61.2131 78.609 58.5245 77.8204 51.319C76.7808 41.7835 76.9959 40.7797 79.9713 41.8551C81.5844 42.4287 81.656 42.5721 81.5127 44.5437C81.2976 47.304 83.2335 59.9226 83.9504 60.3886C85.9221 61.6791 87.4277 59.3848 86.7824 55.9793C85.0258 46.4437 86.2089 40.5288 89.722 41.425C90.7974 41.7118 91.586 42.6797 91.586 43.7909C91.7652 54.5812 91.8728 61.7867 95.1708 61.7867C97.25 61.7867 97.25 61.8584 96.784 52.502C96.2821 42.5721 97.4652 42.0344 99.2217 42.5721C101.767 43.3608 102.018 49.3116 102.269 50.9247C102.269 50.9606 107.933 88.1708 107.933 88.2425C108.614 96.7027 113.883 104.123 117.576 101.757C118.329 101.255 116.931 97.9215 115.425 96.6668Z" fill="#576E22"/>
<path d="M26.8804 51.4982C26.8804 45.7267 26.9521 45.2607 28.0992 43.9701C30.1425 41.5683 30.7878 43.7551 31.1822 54.7963C31.469 62.8621 31.5049 62.9696 33.2256 63.4715C35.4482 64.1526 35.6633 63.113 35.4123 54.0076C35.1614 45.7984 35.1972 45.5116 36.2727 44.4362C38.4952 42.1778 38.9613 43.074 39.8933 50.853C40.4311 55.5849 40.3593 58.2377 39.6065 62.3244C39.4272 63.364 39.6064 63.6866 40.4668 63.9375C42.7969 64.5469 43.1912 63.7583 43.8723 56.9472C45.0553 45.1531 43.4422 41.6042 36.7745 41.5325C34.8029 41.4966 32.5444 41.2457 31.7558 40.8872C30.9671 40.5646 29.1747 40.3136 27.7766 40.3495C26.3785 40.3853 24.0842 40.2778 22.722 40.0986C21.073 39.8835 19.7109 40.0269 18.743 40.4571C14.6205 42.357 13.9035 44.5795 9.06403 70.7128C8.23952 75.2296 7.30744 80.8578 7.0565 83.1879C6.55463 87.5255 5.04894 92.5801 3.04145 96.7385C1.64337 99.6063 1.96608 100.646 4.18865 100.646C8.16779 100.646 11.896 94.1933 12.7922 85.6973C13.2582 81.1804 14.0828 79.3163 15.5167 68.9921C18.2411 49.0964 18.7429 46.8021 20.7503 44.472C23.5106 41.2815 23.2597 42.3212 23.6182 60.8904C23.6182 61.6791 24.3352 62.2885 25.1239 62.2168C26.5578 62.1093 26.8804 60.7829 26.8804 51.4982Z" fill="#576E22"/>
<path d="M93.7367 100.933C91.4783 96.7745 91.299 96.6311 87.2841 96.2009C82.4087 95.6632 78.6446 93.7633 77.0315 91.0388C73.4825 84.9805 68.4997 68.8847 69.0733 65.3357C69.862 60.3528 71.5109 60.7113 74.1995 66.3753C76.3146 70.8205 77.7127 72.3978 82.6956 76.126C84.9182 77.775 86.2804 79.2448 87.1766 81.0013C88.2879 83.1522 88.6821 83.5107 89.9727 83.5107C94.382 83.5107 89.1123 73.9393 83.7351 72.2186C81.4409 71.5016 80.7239 70.8922 80.7239 69.7092C80.7239 63.7943 72.0846 57.3775 67.496 59.8868C63.5527 62.0736 63.23 65.3716 65.9545 75.3015C71.1883 94.3368 74.1279 98.2084 83.9503 99.0688C87.786 99.4273 88.7179 100.072 90.6537 103.693C93.3065 108.676 96.3537 105.27 95.7442 104.482C95.5291 104.159 94.6329 102.582 93.7367 100.933Z" fill="#576E22"/>
<path d="M46.0945 62.2171C43.4776 63.4359 40.6456 66.4472 39.4267 69.315C38.5305 71.4301 38.2797 71.6451 36.2722 71.9678C31.8987 72.6489 28.0988 75.9111 27.5253 79.3883C27.0234 82.4713 30.1779 84.0486 31.325 81.2524C32.8307 77.6318 35.8061 74.8356 39.0682 74.0111C41.0757 73.5092 45.0908 69.4943 48.4964 64.6906C50.6473 61.6435 52.0811 65.7661 50.5755 70.5697C45.8436 85.4108 39.7135 93.5841 32.6515 94.3728C29.6761 94.7313 29.0308 95.3407 26.4855 100.395C24.8007 103.693 24.7649 103.873 25.6611 104.518C27.812 106.095 29.8554 104.589 31.2534 100.431C32.2213 97.5633 32.3289 97.4199 34.5157 96.8821C42.7607 94.7671 46.8473 89.8918 52.7623 75.23C57.2791 64.0454 54.3754 58.3814 46.0945 62.2171Z" fill="#576E22"/>
</svg>
