<svg width="371" height="259" viewBox="0 0 371 259" fill="none" xmlns="http://www.w3.org/2000/svg">
<path d="M185.5 10C68.1156 10 10 52.7675 10 105.524C10 138.194 33.4368 167.034 78.4482 184.259L54.4427 248L131.001 197.384C147.549 199.77 165.729 201.048 185.5 201.048C299.886 201.048 361 158.28 361 105.524C361 54.8113 299.744 -2.495 160.116 43.915" stroke="#00503F" stroke-width="20" stroke-linejoin="round"/>
<path d="M343.784 164C356.746 177.834 327.311 209.029 312.494 217.361L333.228 249L285.741 230.92C277.104 234.242 264.552 238.325 234.551 238.325C205.926 238.325 165.555 230.92 167.04 209.707" stroke="#00503F" stroke-width="20" stroke-linejoin="round"/>
</svg>
