<svg width="145" height="163" viewBox="0 0 145 163" fill="none" xmlns="http://www.w3.org/2000/svg">
<path d="M9.25581 81.554L91.6279 5C99.215 5 107.241 7.8044 114.514 12.3262C120.856 16.2691 126.626 21.518 131.034 27.3519C134.947 32.5308 137.787 38.1708 139 43.7677L80.8837 130.3L43.4419 142.65L6 155L7.62791 118.277L9.25581 81.554Z" fill="#EEEEEE"/>
<path d="M9.25581 81.554L91.6279 5C99.215 5 107.241 7.8044 114.514 12.3262M9.25581 81.554L7.62791 118.277M9.25581 81.554C19.5911 80.7572 31.2939 83.6768 42.2606 89.1033M80.8837 130.3L139 43.7677C137.787 38.1708 134.947 32.5308 131.034 27.3519M80.8837 130.3L43.4419 142.65M80.8837 130.3C78.5029 122.059 73.5017 114.157 66.9319 107.199M7.62791 118.277L6 155L43.4419 142.65M7.62791 118.277C7.62791 118.277 18.4321 120.211 27.4884 126.374C36.5446 132.537 43.4419 142.65 43.4419 142.65M66.9319 107.199L131.034 27.3519M66.9319 107.199C60.0321 99.8923 51.4021 93.6268 42.2606 89.1033M131.034 27.3519C126.626 21.518 120.856 16.2691 114.514 12.3262M42.2606 89.1033L114.514 12.3262" stroke="#121212" stroke-width="10"/>
</svg>
