<svg width="1066" height="642" viewBox="0 0 1066 642" fill="none" xmlns="http://www.w3.org/2000/svg">
<line x1="30.9883" y1="608.672" x2="163.501" y2="532.166" stroke="white" stroke-width="4" stroke-dasharray="16 8"/>
<path d="M207.628 526.46C214.748 525.774 208.354 515.066 208.354 515.066C208.354 515.066 222.565 525.285 222.129 510.69C221.693 496.094 208.761 507.371 208.761 507.371C208.761 507.371 219.891 497.093 208.761 494.744C197.631 492.394 202.687 507.371 202.687 507.371C202.687 507.371 195.974 494.744 189.465 503.554C182.955 512.364 199.375 512.129 199.375 512.129C199.375 512.129 183.216 512.599 190.308 522.173C197.4 531.746 202.687 517.004 202.687 517.004C202.687 517.004 200.508 527.146 207.628 526.46Z" stroke="white" stroke-width="4"/>
<line x1="244.577" y1="485.357" x2="377.09" y2="408.85" stroke="white" stroke-width="4" stroke-dasharray="16 8"/>
<mask id="path-4-outside-1_1604_1630" maskUnits="userSpaceOnUse" x="389.276" y="229.958" width="289.164" height="184.847" fill="black">
<rect fill="white" x="389.276" y="229.958" width="289.164" height="184.847"/>
<path d="M414.406 403.924C409.653 406.668 404.321 404.994 400.961 399.174C397.587 393.33 398.901 388.045 403.654 385.301C408.407 382.557 413.654 384.086 417.014 389.906C420.374 395.726 419.159 401.18 414.406 403.924ZM412.614 400.82C415.281 399.28 415.565 395.851 413.353 392.02C411.127 388.164 408.099 386.841 405.432 388.381C402.764 389.921 402.397 393.204 404.623 397.06C406.835 400.891 409.946 402.36 412.614 400.82ZM433.066 393.151C428.313 395.895 422.982 394.22 419.622 388.401C416.248 382.557 417.561 377.272 422.314 374.528C427.067 371.784 432.314 373.313 435.674 379.133C439.034 384.952 437.819 390.407 433.066 393.151ZM431.274 390.047C433.941 388.507 434.225 385.078 432.013 381.247C429.787 377.391 426.759 376.067 424.092 377.607C421.425 379.147 421.057 382.431 423.283 386.287C425.495 390.118 428.607 391.587 431.274 390.047ZM451.726 382.377C446.973 385.121 441.642 383.447 438.282 377.627C434.908 371.783 436.221 366.498 440.974 363.754C445.727 361.01 450.974 362.539 454.334 368.359C457.694 374.179 456.479 379.633 451.726 382.377ZM449.934 379.273C452.601 377.733 452.885 374.304 450.673 370.473C448.447 366.618 445.419 365.294 442.752 366.834C440.085 368.374 439.717 371.658 441.943 375.513C444.155 379.344 447.267 380.813 449.934 379.273ZM470.386 371.604C465.633 374.348 460.302 372.673 456.942 366.854C453.568 361.01 454.881 355.725 459.634 352.981C464.387 350.237 469.635 351.766 472.995 357.586C476.355 363.405 475.139 368.86 470.386 371.604ZM468.594 368.5C471.262 366.96 471.545 363.531 469.333 359.7C467.107 355.844 464.08 354.52 461.412 356.06C458.745 357.6 458.377 360.884 460.603 364.74C462.815 368.571 465.927 370.04 468.594 368.5ZM489.046 360.83C484.294 363.574 478.962 361.9 475.602 356.08C472.228 350.236 473.542 344.951 478.294 342.207C483.047 339.463 488.295 340.993 491.655 346.812C495.015 352.632 493.799 358.086 489.046 360.83ZM487.254 357.727C489.922 356.187 490.205 352.757 487.993 348.926C485.767 345.071 482.74 343.747 480.072 345.287C477.405 346.827 477.038 350.111 479.264 353.966C481.476 357.797 484.587 359.267 487.254 357.727ZM507.706 350.057C502.954 352.801 497.622 351.126 494.262 345.307C490.888 339.463 492.202 334.178 496.954 331.434C501.707 328.69 506.955 330.219 510.315 336.039C513.675 341.858 512.459 347.313 507.706 350.057ZM505.914 346.953C508.582 345.413 508.865 341.984 506.653 338.153C504.427 334.297 501.4 332.974 498.732 334.514C496.065 336.054 495.698 339.337 497.924 343.193C500.136 347.024 503.247 348.493 505.914 346.953ZM526.367 339.284C521.614 342.028 516.282 340.353 512.922 334.533C509.548 328.689 510.862 323.405 515.615 320.661C520.367 317.917 525.615 319.446 528.975 325.265C532.335 331.085 531.119 336.54 526.367 339.284ZM524.575 336.18C527.242 334.64 527.525 331.211 525.313 327.379C523.087 323.524 520.06 322.2 517.393 323.74C514.725 325.28 514.358 328.564 516.584 332.419C518.796 336.251 521.907 337.72 524.575 336.18ZM545.027 328.51C540.274 331.254 534.942 329.58 531.582 323.76C528.208 317.916 529.522 312.631 534.275 309.887C539.028 307.143 544.275 308.672 547.635 314.492C550.995 320.312 549.78 325.766 545.027 328.51ZM543.235 325.406C545.902 323.866 546.186 320.437 543.974 316.606C541.748 312.75 538.72 311.427 536.053 312.967C533.385 314.507 533.018 317.79 535.244 321.646C537.456 325.477 540.567 326.946 543.235 325.406ZM563.444 317.877C559.08 320.397 555.047 319.46 551.603 313.494L545.905 303.625L549.494 301.553L555.374 311.738C557.53 315.472 559.543 315.991 561.652 314.773C563.786 313.541 564.416 311.496 562.26 307.762L556.38 297.577L559.824 295.589L565.522 305.458C568.966 311.424 567.833 315.343 563.444 317.877ZM569.368 293.862L572.532 299.342L574.86 297.998C577.163 296.668 577.864 294.97 576.758 293.054C575.638 291.114 573.999 291.188 571.696 292.518L569.368 293.862ZM588.274 303.089L584.273 305.399L576.667 300.737L574.17 302.179L578.09 308.969L574.501 311.041L564.141 293.097L570.397 289.485C574.156 287.315 577.894 286.902 580.274 291.024C581.828 293.716 581.436 296.173 579.837 298.163L588.274 303.089ZM602.079 295.571C599.678 296.957 596.731 297.398 594.02 296.732L594.653 293.069C596.624 293.515 598.783 293.335 600.359 292.425C602.227 291.347 602.759 289.973 602.031 288.712C601.261 287.379 599.932 287.596 597.939 287.841L594.951 288.209C592.698 288.507 590.039 288.102 588.527 285.483C586.833 282.549 588.102 278.81 591.739 276.71C593.824 275.506 596.386 275.127 598.695 275.766L598.178 279.071C596.492 278.783 594.996 278.936 593.517 279.79C591.941 280.7 591.328 281.991 592.014 283.179C592.756 284.464 594.307 284.183 596.185 283.907L599.111 283.544C601.812 283.181 604.04 283.737 605.538 286.331C607.232 289.266 606.225 293.177 602.079 295.571ZM614.652 287.86L606.014 272.898L600.97 275.81L599.248 272.827L612.973 264.903L614.695 267.886L609.603 270.826L618.241 285.788L614.652 287.86ZM632.81 277.829C628.057 280.573 622.726 278.898 619.366 273.078C615.992 267.234 617.305 261.949 622.058 259.205C626.811 256.461 632.058 257.991 635.418 263.81C638.778 269.63 637.563 275.085 632.81 277.829ZM631.018 274.725C633.685 273.185 633.969 269.756 631.757 265.924C629.531 262.069 626.503 260.745 623.836 262.285C621.169 263.825 620.801 267.109 623.027 270.964C625.239 274.796 628.351 276.265 631.018 274.725ZM639.012 253.653L642.176 259.133L644.504 257.789C646.807 256.459 647.508 254.761 646.402 252.845C645.282 250.905 643.643 250.979 641.34 252.309L639.012 253.653ZM657.918 262.88L653.917 265.19L646.311 260.528L643.814 261.97L647.734 268.76L644.145 270.832L633.785 252.888L640.041 249.276C643.8 247.106 647.538 246.693 649.918 250.815C651.472 253.507 651.08 255.964 649.481 257.954L657.918 262.88ZM663.421 259.703L659.627 253.131L647.678 244.867L651.485 242.669L655.799 245.997C657.078 247.037 658.291 248.018 659.647 249.078L659.744 249.022C659.504 247.318 659.309 245.749 659.048 244.121L658.323 238.721L662.057 236.565L663.216 251.059L667.01 257.631L663.421 259.703Z"/>
</mask>
<path d="M414.406 403.924C409.653 406.668 404.321 404.994 400.961 399.174C397.587 393.33 398.901 388.045 403.654 385.301C408.407 382.557 413.654 384.086 417.014 389.906C420.374 395.726 419.159 401.18 414.406 403.924ZM412.614 400.82C415.281 399.28 415.565 395.851 413.353 392.02C411.127 388.164 408.099 386.841 405.432 388.381C402.764 389.921 402.397 393.204 404.623 397.06C406.835 400.891 409.946 402.36 412.614 400.82ZM433.066 393.151C428.313 395.895 422.982 394.22 419.622 388.401C416.248 382.557 417.561 377.272 422.314 374.528C427.067 371.784 432.314 373.313 435.674 379.133C439.034 384.952 437.819 390.407 433.066 393.151ZM431.274 390.047C433.941 388.507 434.225 385.078 432.013 381.247C429.787 377.391 426.759 376.067 424.092 377.607C421.425 379.147 421.057 382.431 423.283 386.287C425.495 390.118 428.607 391.587 431.274 390.047ZM451.726 382.377C446.973 385.121 441.642 383.447 438.282 377.627C434.908 371.783 436.221 366.498 440.974 363.754C445.727 361.01 450.974 362.539 454.334 368.359C457.694 374.179 456.479 379.633 451.726 382.377ZM449.934 379.273C452.601 377.733 452.885 374.304 450.673 370.473C448.447 366.618 445.419 365.294 442.752 366.834C440.085 368.374 439.717 371.658 441.943 375.513C444.155 379.344 447.267 380.813 449.934 379.273ZM470.386 371.604C465.633 374.348 460.302 372.673 456.942 366.854C453.568 361.01 454.881 355.725 459.634 352.981C464.387 350.237 469.635 351.766 472.995 357.586C476.355 363.405 475.139 368.86 470.386 371.604ZM468.594 368.5C471.262 366.96 471.545 363.531 469.333 359.7C467.107 355.844 464.08 354.52 461.412 356.06C458.745 357.6 458.377 360.884 460.603 364.74C462.815 368.571 465.927 370.04 468.594 368.5ZM489.046 360.83C484.294 363.574 478.962 361.9 475.602 356.08C472.228 350.236 473.542 344.951 478.294 342.207C483.047 339.463 488.295 340.993 491.655 346.812C495.015 352.632 493.799 358.086 489.046 360.83ZM487.254 357.727C489.922 356.187 490.205 352.757 487.993 348.926C485.767 345.071 482.74 343.747 480.072 345.287C477.405 346.827 477.038 350.111 479.264 353.966C481.476 357.797 484.587 359.267 487.254 357.727ZM507.706 350.057C502.954 352.801 497.622 351.126 494.262 345.307C490.888 339.463 492.202 334.178 496.954 331.434C501.707 328.69 506.955 330.219 510.315 336.039C513.675 341.858 512.459 347.313 507.706 350.057ZM505.914 346.953C508.582 345.413 508.865 341.984 506.653 338.153C504.427 334.297 501.4 332.974 498.732 334.514C496.065 336.054 495.698 339.337 497.924 343.193C500.136 347.024 503.247 348.493 505.914 346.953ZM526.367 339.284C521.614 342.028 516.282 340.353 512.922 334.533C509.548 328.689 510.862 323.405 515.615 320.661C520.367 317.917 525.615 319.446 528.975 325.265C532.335 331.085 531.119 336.54 526.367 339.284ZM524.575 336.18C527.242 334.64 527.525 331.211 525.313 327.379C523.087 323.524 520.06 322.2 517.393 323.74C514.725 325.28 514.358 328.564 516.584 332.419C518.796 336.251 521.907 337.72 524.575 336.18ZM545.027 328.51C540.274 331.254 534.942 329.58 531.582 323.76C528.208 317.916 529.522 312.631 534.275 309.887C539.028 307.143 544.275 308.672 547.635 314.492C550.995 320.312 549.78 325.766 545.027 328.51ZM543.235 325.406C545.902 323.866 546.186 320.437 543.974 316.606C541.748 312.75 538.72 311.427 536.053 312.967C533.385 314.507 533.018 317.79 535.244 321.646C537.456 325.477 540.567 326.946 543.235 325.406ZM563.444 317.877C559.08 320.397 555.047 319.46 551.603 313.494L545.905 303.625L549.494 301.553L555.374 311.738C557.53 315.472 559.543 315.991 561.652 314.773C563.786 313.541 564.416 311.496 562.26 307.762L556.38 297.577L559.824 295.589L565.522 305.458C568.966 311.424 567.833 315.343 563.444 317.877ZM569.368 293.862L572.532 299.342L574.86 297.998C577.163 296.668 577.864 294.97 576.758 293.054C575.638 291.114 573.999 291.188 571.696 292.518L569.368 293.862ZM588.274 303.089L584.273 305.399L576.667 300.737L574.17 302.179L578.09 308.969L574.501 311.041L564.141 293.097L570.397 289.485C574.156 287.315 577.894 286.902 580.274 291.024C581.828 293.716 581.436 296.173 579.837 298.163L588.274 303.089ZM602.079 295.571C599.678 296.957 596.731 297.398 594.02 296.732L594.653 293.069C596.624 293.515 598.783 293.335 600.359 292.425C602.227 291.347 602.759 289.973 602.031 288.712C601.261 287.379 599.932 287.596 597.939 287.841L594.951 288.209C592.698 288.507 590.039 288.102 588.527 285.483C586.833 282.549 588.102 278.81 591.739 276.71C593.824 275.506 596.386 275.127 598.695 275.766L598.178 279.071C596.492 278.783 594.996 278.936 593.517 279.79C591.941 280.7 591.328 281.991 592.014 283.179C592.756 284.464 594.307 284.183 596.185 283.907L599.111 283.544C601.812 283.181 604.04 283.737 605.538 286.331C607.232 289.266 606.225 293.177 602.079 295.571ZM614.652 287.86L606.014 272.898L600.97 275.81L599.248 272.827L612.973 264.903L614.695 267.886L609.603 270.826L618.241 285.788L614.652 287.86ZM632.81 277.829C628.057 280.573 622.726 278.898 619.366 273.078C615.992 267.234 617.305 261.949 622.058 259.205C626.811 256.461 632.058 257.991 635.418 263.81C638.778 269.63 637.563 275.085 632.81 277.829ZM631.018 274.725C633.685 273.185 633.969 269.756 631.757 265.924C629.531 262.069 626.503 260.745 623.836 262.285C621.169 263.825 620.801 267.109 623.027 270.964C625.239 274.796 628.351 276.265 631.018 274.725ZM639.012 253.653L642.176 259.133L644.504 257.789C646.807 256.459 647.508 254.761 646.402 252.845C645.282 250.905 643.643 250.979 641.34 252.309L639.012 253.653ZM657.918 262.88L653.917 265.19L646.311 260.528L643.814 261.97L647.734 268.76L644.145 270.832L633.785 252.888L640.041 249.276C643.8 247.106 647.538 246.693 649.918 250.815C651.472 253.507 651.08 255.964 649.481 257.954L657.918 262.88ZM663.421 259.703L659.627 253.131L647.678 244.867L651.485 242.669L655.799 245.997C657.078 247.037 658.291 248.018 659.647 249.078L659.744 249.022C659.504 247.318 659.309 245.749 659.048 244.121L658.323 238.721L662.057 236.565L663.216 251.059L667.01 257.631L663.421 259.703Z" fill="#00503F"/>
<path d="M412.406 400.46C410.95 401.301 409.625 401.376 408.456 400.976C407.225 400.555 405.74 399.451 404.426 397.174L397.497 401.174C399.543 404.717 402.403 407.36 405.866 408.545C409.391 409.751 413.109 409.292 416.406 407.388L412.406 400.46ZM404.426 397.174C403.103 394.884 402.923 393.103 403.175 391.894C403.416 390.741 404.144 389.637 405.654 388.765L401.654 381.837C398.411 383.71 396.105 386.62 395.345 390.256C394.596 393.837 395.446 397.62 397.497 401.174L404.426 397.174ZM405.654 388.765C407.156 387.898 408.478 387.82 409.604 388.191C410.784 388.58 412.237 389.631 413.55 391.906L420.478 387.906C418.432 384.361 415.58 381.738 412.108 380.593C408.582 379.431 404.904 379.96 401.654 381.837L405.654 388.765ZM413.55 391.906C414.864 394.183 415.078 396.021 414.827 397.298C414.589 398.51 413.862 399.619 412.406 400.46L416.406 407.388C419.702 405.485 421.959 402.495 422.677 398.839C423.383 395.248 422.524 391.449 420.478 387.906L413.55 391.906ZM414.614 404.284C417.158 402.816 418.57 400.358 418.799 397.613C419.015 395.025 418.187 392.393 416.817 390.02L409.888 394.02C410.731 395.479 410.866 396.476 410.827 396.946C410.809 397.157 410.762 397.234 410.757 397.241C410.756 397.243 410.735 397.286 410.614 397.356L414.614 404.284ZM416.817 390.02C415.443 387.64 413.582 385.609 411.209 384.534C408.68 383.387 405.896 383.494 403.432 384.917L407.432 391.845C407.588 391.754 407.66 391.754 407.667 391.753C407.676 391.753 407.747 391.748 407.906 391.82C408.271 391.985 409.036 392.544 409.888 394.02L416.817 390.02ZM403.432 384.917C400.968 386.339 399.483 388.697 399.212 391.461C398.957 394.053 399.785 396.68 401.159 399.06L408.087 395.06C407.235 393.584 407.134 392.642 407.173 392.243C407.19 392.069 407.23 392.01 407.235 392.003C407.238 391.997 407.275 391.935 407.432 391.845L403.432 384.917ZM401.159 399.06C402.529 401.433 404.394 403.467 406.743 404.573C409.236 405.747 412.07 405.753 414.614 404.284L410.614 397.356C410.493 397.426 410.445 397.423 410.443 397.423C410.434 397.423 410.343 397.426 410.152 397.336C409.726 397.135 408.929 396.519 408.087 395.06L401.159 399.06ZM431.066 389.687C429.61 390.527 428.286 390.602 427.116 390.202C425.885 389.781 424.4 388.677 423.086 386.401L416.157 390.401C418.203 393.944 421.064 396.587 424.526 397.772C428.051 398.978 431.769 398.518 435.066 396.615L431.066 389.687ZM423.086 386.401C421.764 384.11 421.583 382.329 421.836 381.12C422.077 379.968 422.804 378.863 424.314 377.992L420.314 371.064C417.071 372.936 414.765 375.846 414.005 379.483C413.256 383.064 414.106 386.847 416.157 390.401L423.086 386.401ZM424.314 377.992C425.816 377.125 427.138 377.047 428.264 377.418C429.444 377.807 430.897 378.858 432.21 381.133L439.138 377.133C437.092 373.588 434.24 370.964 430.769 369.82C427.243 368.658 423.564 369.187 420.314 371.064L424.314 377.992ZM432.21 381.133C433.525 383.409 433.738 385.248 433.487 386.524C433.249 387.737 432.522 388.846 431.066 389.687L435.066 396.615C438.362 394.712 440.62 391.722 441.337 388.066C442.043 384.474 441.184 380.676 439.138 377.133L432.21 381.133ZM433.274 393.511C435.818 392.042 437.23 389.585 437.459 386.839C437.675 384.252 436.847 381.619 435.477 379.247L428.549 383.247C429.391 384.705 429.526 385.703 429.487 386.173C429.469 386.383 429.422 386.46 429.417 386.468C429.416 386.469 429.395 386.513 429.274 386.583L433.274 393.511ZM435.477 379.247C434.103 376.867 432.242 374.836 429.869 373.76C427.34 372.614 424.556 372.721 422.092 374.143L426.092 381.071C426.248 380.981 426.321 380.98 426.327 380.98C426.336 380.979 426.407 380.975 426.566 381.047C426.931 381.212 427.696 381.77 428.549 383.247L435.477 379.247ZM422.092 374.143C419.628 375.566 418.143 377.924 417.872 380.687C417.617 383.28 418.445 385.907 419.819 388.287L426.747 384.287C425.895 382.81 425.794 381.868 425.833 381.47C425.85 381.296 425.89 381.237 425.895 381.23C425.899 381.224 425.935 381.162 426.092 381.071L422.092 374.143ZM419.819 388.287C421.189 390.659 423.054 392.693 425.403 393.8C427.896 394.974 430.73 394.98 433.274 393.511L429.274 386.583C429.153 386.653 429.105 386.649 429.103 386.649C429.094 386.65 429.003 386.652 428.812 386.562C428.386 386.361 427.589 385.745 426.747 384.287L419.819 388.287ZM449.726 378.913C448.27 379.754 446.946 379.829 445.777 379.429C444.546 379.008 443.06 377.904 441.746 375.627L434.818 379.627C436.863 383.17 439.724 385.813 443.187 386.998C446.712 388.204 450.43 387.745 453.726 385.841L449.726 378.913ZM441.746 375.627C440.424 373.337 440.243 371.556 440.496 370.347C440.737 369.194 441.464 368.09 442.974 367.218L438.974 360.29C435.731 362.163 433.425 365.073 432.665 368.71C431.916 372.29 432.766 376.073 434.818 379.627L441.746 375.627ZM442.974 367.218C444.476 366.351 445.798 366.273 446.924 366.644C448.105 367.033 449.557 368.084 450.87 370.359L457.798 366.359C455.752 362.814 452.9 360.191 449.429 359.046C445.903 357.884 442.225 358.414 438.974 360.29L442.974 367.218ZM450.87 370.359C452.185 372.636 452.398 374.474 452.147 375.751C451.909 376.963 451.182 378.072 449.726 378.913L453.726 385.841C457.023 383.938 459.28 380.948 459.998 377.292C460.703 373.701 459.844 369.902 457.798 366.359L450.87 370.359ZM451.934 382.738C454.478 381.269 455.89 378.811 456.119 376.066C456.336 373.478 455.507 370.846 454.137 368.473L447.209 372.473C448.051 373.932 448.186 374.93 448.147 375.399C448.13 375.61 448.082 375.687 448.077 375.695C448.076 375.696 448.055 375.74 447.934 375.809L451.934 382.738ZM454.137 368.473C452.763 366.094 450.902 364.063 448.529 362.987C446 361.84 443.216 361.947 440.752 363.37L444.752 370.298C444.909 370.208 444.981 370.207 444.988 370.206C444.996 370.206 445.067 370.201 445.227 370.273C445.591 370.438 446.357 370.997 447.209 372.473L454.137 368.473ZM440.752 363.37C438.288 364.792 436.804 367.15 436.532 369.914C436.277 372.506 437.105 375.134 438.479 377.513L445.407 373.513C444.555 372.037 444.454 371.095 444.493 370.697C444.511 370.523 444.55 370.463 444.555 370.456C444.559 370.45 444.595 370.388 444.752 370.298L440.752 363.37ZM438.479 377.513C439.849 379.886 441.714 381.92 444.063 383.026C446.556 384.2 449.39 384.206 451.934 382.738L447.934 375.809C447.813 375.879 447.765 375.876 447.763 375.876C447.754 375.876 447.664 375.879 447.472 375.789C447.046 375.588 446.25 374.972 445.407 373.513L438.479 377.513ZM468.386 368.14C466.93 368.981 465.606 369.056 464.437 368.656C463.206 368.234 461.72 367.13 460.406 364.854L453.478 368.854C455.523 372.397 458.384 375.04 461.847 376.225C465.372 377.431 469.09 376.971 472.386 375.068L468.386 368.14ZM460.406 364.854C459.084 362.564 458.903 360.782 459.156 359.573C459.397 358.421 460.125 357.317 461.634 356.445L457.634 349.517C454.391 351.389 452.086 354.299 451.325 357.936C450.576 361.517 451.426 365.3 453.478 368.854L460.406 364.854ZM461.634 356.445C463.136 355.578 464.458 355.5 465.584 355.871C466.765 356.26 468.217 357.311 469.53 359.586L476.459 355.586C474.412 352.041 471.56 349.417 468.089 348.273C464.563 347.111 460.885 347.64 457.634 349.517L461.634 356.445ZM469.53 359.586C470.845 361.862 471.058 363.701 470.808 364.977C470.57 366.19 469.842 367.299 468.386 368.14L472.386 375.068C475.683 373.165 477.94 370.175 478.658 366.519C479.363 362.927 478.504 359.129 476.459 355.586L469.53 359.586ZM470.594 371.964C473.138 370.495 474.55 368.038 474.779 365.292C474.996 362.705 474.167 360.072 472.797 357.7L465.869 361.7C466.711 363.158 466.847 364.156 466.807 364.626C466.79 364.836 466.742 364.913 466.737 364.921C466.736 364.923 466.715 364.966 466.594 365.036L470.594 371.964ZM472.797 357.7C471.423 355.32 469.562 353.289 467.19 352.214C464.66 351.067 461.876 351.174 459.412 352.596L463.412 359.525C463.569 359.434 463.641 359.433 463.648 359.433C463.656 359.433 463.727 359.428 463.887 359.5C464.251 359.665 465.017 360.224 465.869 361.7L472.797 357.7ZM459.412 352.596C456.948 354.019 455.464 356.377 455.192 359.14C454.937 361.733 455.766 364.36 457.139 366.74L464.068 362.74C463.215 361.264 463.114 360.321 463.154 359.923C463.171 359.749 463.21 359.69 463.215 359.683C463.219 359.677 463.256 359.615 463.412 359.525L459.412 352.596ZM457.139 366.74C458.509 369.112 460.374 371.146 462.724 372.253C465.216 373.427 468.05 373.433 470.594 371.964L466.594 365.036C466.473 365.106 466.425 365.102 466.423 365.102C466.414 365.103 466.324 365.105 466.133 365.015C465.706 364.815 464.91 364.198 464.068 362.74L457.139 366.74ZM487.046 357.366C485.59 358.207 484.266 358.282 483.097 357.882C481.866 357.461 480.381 356.357 479.066 354.08L472.138 358.08C474.183 361.623 477.044 364.266 480.507 365.451C484.032 366.657 487.75 366.198 491.046 364.295L487.046 357.366ZM479.066 354.08C477.744 351.79 477.563 350.009 477.816 348.8C478.057 347.647 478.785 346.543 480.294 345.672L476.294 338.743C473.051 340.616 470.746 343.526 469.985 347.163C469.237 350.743 470.086 354.526 472.138 358.08L479.066 354.08ZM480.294 345.672C481.797 344.804 483.119 344.726 484.245 345.097C485.425 345.486 486.877 346.537 488.191 348.812L495.119 344.812C493.072 341.267 490.221 338.644 486.749 337.5C483.223 336.337 479.545 336.867 476.294 338.743L480.294 345.672ZM488.191 348.812C489.505 351.089 489.718 352.927 489.468 354.204C489.23 355.416 488.503 356.526 487.046 357.366L491.046 364.295C494.343 362.391 496.6 359.401 497.318 355.745C498.023 352.154 497.164 348.355 495.119 344.812L488.191 348.812ZM489.254 361.191C491.798 359.722 493.21 357.264 493.44 354.519C493.656 351.931 492.827 349.299 491.457 346.926L484.529 350.926C485.371 352.385 485.507 353.383 485.467 353.852C485.45 354.063 485.402 354.14 485.397 354.148C485.396 354.149 485.375 354.193 485.254 354.263L489.254 361.191ZM491.457 346.926C490.083 344.547 488.222 342.516 485.85 341.44C483.32 340.294 480.536 340.4 478.072 341.823L482.072 348.751C482.229 348.661 482.301 348.66 482.308 348.659C482.316 348.659 482.388 348.654 482.547 348.726C482.911 348.892 483.677 349.45 484.529 350.926L491.457 346.926ZM478.072 341.823C475.608 343.246 474.124 345.603 473.852 348.367C473.597 350.96 474.426 353.587 475.799 355.966L482.728 351.966C481.875 350.49 481.775 349.548 481.814 349.15C481.831 348.976 481.871 348.916 481.875 348.909C481.879 348.903 481.916 348.842 482.072 348.751L478.072 341.823ZM475.799 355.966C477.169 358.339 479.035 360.373 481.384 361.479C483.876 362.653 486.71 362.659 489.254 361.191L485.254 354.263C485.133 354.332 485.085 354.329 485.083 354.329C485.074 354.329 484.984 354.332 484.793 354.242C484.366 354.041 483.57 353.425 482.728 351.966L475.799 355.966ZM505.706 346.593C504.25 347.434 502.926 347.509 501.757 347.109C500.526 346.687 499.041 345.583 497.726 343.307L490.798 347.307C492.844 350.85 495.704 353.493 499.167 354.678C502.692 355.884 506.41 355.424 509.706 353.521L505.706 346.593ZM497.726 343.307C496.404 341.017 496.223 339.235 496.476 338.027C496.717 336.874 497.445 335.77 498.954 334.898L494.954 327.97C491.711 329.842 489.406 332.753 488.645 336.389C487.897 339.97 488.746 343.753 490.798 347.307L497.726 343.307ZM498.954 334.898C500.457 334.031 501.779 333.953 502.905 334.324C504.085 334.713 505.537 335.764 506.851 338.039L513.779 334.039C511.732 330.494 508.881 327.87 505.409 326.726C501.883 325.564 498.205 326.093 494.954 327.97L498.954 334.898ZM506.851 338.039C508.165 340.315 508.379 342.154 508.128 343.431C507.89 344.643 507.163 345.752 505.706 346.593L509.706 353.521C513.003 351.618 515.26 348.628 515.978 344.972C516.683 341.381 515.824 337.582 513.779 334.039L506.851 338.039ZM507.914 350.417C510.458 348.949 511.87 346.491 512.1 343.745C512.316 341.158 511.487 338.525 510.117 336.153L503.189 340.153C504.031 341.611 504.167 342.609 504.128 343.079C504.11 343.29 504.062 343.366 504.058 343.374C504.057 343.376 504.036 343.419 503.914 343.489L507.914 350.417ZM510.117 336.153C508.744 333.773 506.883 331.742 504.51 330.667C501.981 329.52 499.197 329.627 496.732 331.049L500.732 337.978C500.889 337.887 500.961 337.886 500.968 337.886C500.977 337.886 501.048 337.881 501.207 337.953C501.571 338.118 502.337 338.677 503.189 340.153L510.117 336.153ZM496.732 331.049C494.268 332.472 492.784 334.83 492.512 337.593C492.257 340.186 493.086 342.813 494.46 345.193L501.388 341.193C500.536 339.717 500.435 338.774 500.474 338.376C500.491 338.202 500.531 338.143 500.535 338.136C500.539 338.13 500.576 338.068 500.732 337.978L496.732 331.049ZM494.46 345.193C495.829 347.565 497.695 349.599 500.044 350.706C502.536 351.88 505.371 351.886 507.914 350.417L503.914 343.489C503.793 343.559 503.745 343.555 503.744 343.556C503.734 343.556 503.644 343.559 503.453 343.469C503.026 343.268 502.23 342.651 501.388 341.193L494.46 345.193ZM524.367 335.819C522.91 336.66 521.586 336.735 520.417 336.335C519.186 335.914 517.701 334.81 516.386 332.533L509.458 336.533C511.504 340.076 514.364 342.719 517.827 343.904C521.352 345.111 525.07 344.651 528.367 342.748L524.367 335.819ZM516.386 332.533C515.064 330.243 514.883 328.462 515.136 327.253C515.377 326.1 516.105 324.996 517.615 324.125L513.615 317.196C510.371 319.069 508.066 321.979 507.306 325.616C506.557 329.196 507.406 332.979 509.458 336.533L516.386 332.533ZM517.615 324.125C519.117 323.257 520.439 323.179 521.565 323.55C522.745 323.94 524.197 324.991 525.511 327.265L532.439 323.265C530.392 319.72 527.541 317.097 524.069 315.953C520.543 314.79 516.865 315.32 513.615 317.196L517.615 324.125ZM525.511 327.265C526.825 329.542 527.039 331.38 526.788 332.657C526.55 333.869 525.823 334.979 524.367 335.819L528.367 342.748C531.663 340.844 533.92 337.854 534.638 334.199C535.343 330.607 534.485 326.808 532.439 323.265L525.511 327.265ZM526.575 339.644C529.119 338.175 530.53 335.717 530.76 332.972C530.976 330.384 530.147 327.752 528.777 325.379L521.849 329.379C522.691 330.838 522.827 331.836 522.788 332.306C522.77 332.516 522.723 332.593 522.718 332.601C522.717 332.602 522.696 332.646 522.575 332.716L526.575 339.644ZM528.777 325.379C527.404 323 525.543 320.969 523.17 319.893C520.641 318.747 517.857 318.853 515.393 320.276L519.393 327.204C519.549 327.114 519.621 327.113 519.628 327.113C519.637 327.112 519.708 327.107 519.867 327.18C520.231 327.345 520.997 327.903 521.849 329.379L528.777 325.379ZM515.393 320.276C512.929 321.699 511.444 324.056 511.172 326.82C510.918 329.413 511.746 332.04 513.12 334.419L520.048 330.419C519.196 328.943 519.095 328.001 519.134 327.603C519.151 327.429 519.191 327.37 519.195 327.362C519.199 327.357 519.236 327.295 519.393 327.204L515.393 320.276ZM513.12 334.419C514.49 336.792 516.355 338.826 518.704 339.932C521.196 341.106 524.031 341.113 526.575 339.644L522.575 332.716C522.454 332.786 522.405 332.782 522.404 332.782C522.394 332.782 522.304 332.785 522.113 332.695C521.686 332.494 520.89 331.878 520.048 330.419L513.12 334.419ZM543.027 325.046C541.57 325.887 540.246 325.962 539.077 325.562C537.846 325.141 536.361 324.037 535.047 321.76L528.118 325.76C530.164 329.303 533.024 331.946 536.487 333.131C540.012 334.337 543.73 333.877 547.027 331.974L543.027 325.046ZM535.047 321.76C533.724 319.47 533.544 317.689 533.796 316.48C534.037 315.327 534.765 314.223 536.275 313.351L532.275 306.423C529.032 308.295 526.726 311.206 525.966 314.842C525.217 318.423 526.067 322.206 528.118 325.76L535.047 321.76ZM536.275 313.351C537.777 312.484 539.099 312.406 540.225 312.777C541.405 313.166 542.858 314.217 544.171 316.492L551.099 312.492C549.053 308.947 546.201 306.324 542.729 305.179C539.203 304.017 535.525 304.546 532.275 306.423L536.275 313.351ZM544.171 316.492C545.485 318.769 545.699 320.607 545.448 321.884C545.21 323.096 544.483 324.205 543.027 325.046L547.027 331.974C550.323 330.071 552.58 327.081 553.298 323.425C554.004 319.834 553.145 316.035 551.099 312.492L544.171 316.492ZM545.235 328.87C547.779 327.402 549.191 324.944 549.42 322.199C549.636 319.611 548.807 316.979 547.438 314.606L540.509 318.606C541.352 320.065 541.487 321.062 541.448 321.532C541.43 321.743 541.383 321.819 541.378 321.827C541.377 321.829 541.356 321.872 541.235 321.942L545.235 328.87ZM547.438 314.606C546.064 312.226 544.203 310.195 541.83 309.12C539.301 307.973 536.517 308.08 534.053 309.503L538.053 316.431C538.209 316.34 538.281 316.339 538.288 316.339C538.297 316.339 538.368 316.334 538.527 316.406C538.892 316.571 539.657 317.13 540.509 318.606L547.438 314.606ZM534.053 309.503C531.589 310.925 530.104 313.283 529.833 316.047C529.578 318.639 530.406 321.266 531.78 323.646L538.708 319.646C537.856 318.17 537.755 317.227 537.794 316.829C537.811 316.655 537.851 316.596 537.856 316.589C537.859 316.583 537.896 316.521 538.053 316.431L534.053 309.503ZM531.78 323.646C533.15 326.019 535.015 328.052 537.364 329.159C539.857 330.333 542.691 330.339 545.235 328.87L541.235 321.942C541.114 322.012 541.066 322.009 541.064 322.009C541.055 322.009 540.964 322.012 540.773 321.922C540.347 321.721 539.55 321.105 538.708 319.646L531.78 323.646ZM545.905 303.625L543.905 300.161C541.992 301.266 541.336 303.712 542.441 305.625L545.905 303.625ZM549.494 301.553L552.958 299.553C551.853 297.64 549.407 296.985 547.494 298.089L549.494 301.553ZM556.38 297.577L554.38 294.113C552.467 295.218 551.812 297.664 552.916 299.577L556.38 297.577ZM559.824 295.589L563.288 293.589C562.183 291.676 559.737 291.021 557.824 292.125L559.824 295.589ZM561.444 314.413C559.907 315.3 559.016 315.265 558.449 315.075C557.761 314.844 556.54 314.047 555.067 311.494L548.139 315.494C550.109 318.907 552.627 321.561 555.907 322.66C559.309 323.8 562.617 322.973 565.444 321.341L561.444 314.413ZM555.067 311.494L549.369 301.625L542.441 305.625L548.139 315.494L555.067 311.494ZM547.905 307.089L551.494 305.017L547.494 298.089L543.905 300.161L547.905 307.089ZM546.029 303.553L551.909 313.738L558.838 309.738L552.958 299.553L546.029 303.553ZM551.909 313.738C553.143 315.875 554.734 317.837 556.955 318.789C559.478 319.87 561.857 319.274 563.652 318.237L559.652 311.309C559.46 311.42 559.45 311.386 559.593 311.368C559.774 311.345 559.971 311.378 560.106 311.436C560.207 311.479 560.121 311.472 559.873 311.209C559.622 310.944 559.27 310.486 558.838 309.738L551.909 313.738ZM563.652 318.237C565.44 317.205 567.158 315.456 567.528 312.747C567.86 310.321 566.977 307.931 565.724 305.762L558.796 309.762C559.222 310.499 559.432 311.022 559.529 311.36C559.625 311.693 559.588 311.767 559.602 311.664C559.62 311.528 559.688 311.364 559.78 311.245C559.85 311.154 559.855 311.192 559.652 311.309L563.652 318.237ZM565.724 305.762L559.844 295.577L552.916 299.577L558.796 309.762L565.724 305.762ZM558.38 301.041L561.824 299.053L557.824 292.125L554.38 294.113L558.38 301.041ZM556.359 297.589L562.057 307.458L568.986 303.458L563.288 293.589L556.359 297.589ZM562.057 307.458C563.543 310.032 563.633 311.484 563.495 312.183C563.386 312.74 562.997 313.516 561.444 314.413L565.444 321.341C568.281 319.703 570.653 317.252 571.345 313.725C572.01 310.341 570.944 306.85 568.986 303.458L562.057 307.458ZM569.368 293.862L567.368 290.398C565.455 291.502 564.799 293.948 565.904 295.862L569.368 293.862ZM572.532 299.342L569.068 301.342C570.172 303.255 572.619 303.91 574.532 302.806L572.532 299.342ZM588.274 303.089L590.274 306.553C591.509 305.84 592.271 304.524 592.274 303.098C592.278 301.673 591.522 300.353 590.291 299.634L588.274 303.089ZM584.273 305.399L582.183 308.809C583.433 309.575 585.003 309.596 586.273 308.863L584.273 305.399ZM576.667 300.737L578.758 297.327C577.507 296.56 575.938 296.54 574.667 297.273L576.667 300.737ZM574.17 302.179L572.17 298.715C570.257 299.819 569.601 302.266 570.706 304.179L574.17 302.179ZM578.09 308.969L580.09 312.433C582.003 311.328 582.658 308.882 581.554 306.969L578.09 308.969ZM574.501 311.041L571.037 313.041C572.141 314.954 574.588 315.609 576.501 314.505L574.501 311.041ZM564.141 293.097L562.141 289.632C560.228 290.737 559.572 293.183 560.677 295.097L564.141 293.097ZM579.837 298.163L576.719 295.658C575.99 296.565 575.692 297.745 575.904 298.89C576.115 300.035 576.815 301.031 577.821 301.618L579.837 298.163ZM565.904 295.862L569.068 301.342L575.996 297.342L572.832 291.862L565.904 295.862ZM574.532 302.806L576.86 301.462L572.86 294.534L570.532 295.878L574.532 302.806ZM576.86 301.462C578.419 300.561 580.027 299.211 580.812 297.204C581.671 295.01 581.247 292.83 580.222 291.054L573.294 295.054C573.353 295.156 573.302 295.107 573.28 294.924C573.27 294.832 573.268 294.723 573.283 294.604C573.298 294.485 573.327 294.378 573.363 294.288C573.434 294.106 573.504 294.056 573.441 294.12C573.374 294.187 573.202 294.336 572.86 294.534L576.86 301.462ZM580.222 291.054C579.177 289.244 577.436 287.741 574.947 287.569C572.881 287.426 571.027 288.285 569.696 289.054L573.696 295.982C574.123 295.735 574.401 295.617 574.556 295.566C574.711 295.514 574.634 295.567 574.395 295.55C574.269 295.541 574.115 295.515 573.948 295.456C573.78 295.397 573.632 295.318 573.511 295.232C573.273 295.064 573.225 294.935 573.294 295.054L580.222 291.054ZM569.696 289.054L567.368 290.398L571.368 297.326L573.696 295.982L569.696 289.054ZM586.274 299.624L582.273 301.934L586.273 308.863L590.274 306.553L586.274 299.624ZM586.363 301.988L578.758 297.327L574.577 304.147L582.183 308.809L586.363 301.988ZM574.667 297.273L572.17 298.715L576.17 305.643L578.667 304.201L574.667 297.273ZM570.706 304.179L574.626 310.969L581.554 306.969L577.634 300.179L570.706 304.179ZM576.09 305.504L572.501 307.576L576.501 314.505L580.09 312.433L576.09 305.504ZM577.965 309.041L567.605 291.097L560.677 295.097L571.037 313.041L577.965 309.041ZM566.141 296.561L572.397 292.949L568.397 286.02L562.141 289.632L566.141 296.561ZM572.397 292.949C573.98 292.035 575.002 291.838 575.523 291.881C575.724 291.898 575.862 291.949 576.002 292.045C576.16 292.152 576.456 292.412 576.81 293.024L583.738 289.024C581.996 286.007 579.386 284.174 576.183 283.908C573.3 283.67 570.573 284.764 568.397 286.02L572.397 292.949ZM576.81 293.024C577.24 293.768 577.276 294.245 577.253 294.512C577.229 294.792 577.11 295.171 576.719 295.658L582.955 300.669C584.163 299.165 585.04 297.321 585.223 295.201C585.407 293.069 584.863 290.972 583.738 289.024L576.81 293.024ZM577.821 301.618L586.258 306.543L590.291 299.634L581.854 294.709L577.821 301.618ZM594.02 296.732L590.078 296.051C589.72 298.122 591.026 300.117 593.067 300.617L594.02 296.732ZM594.653 293.069L595.536 289.168C594.466 288.926 593.344 289.133 592.432 289.742C591.52 290.351 590.898 291.307 590.711 292.388L594.653 293.069ZM597.939 287.841L597.451 283.871L597.451 283.871L597.939 287.841ZM594.951 288.209L594.462 284.239C594.45 284.24 594.438 284.242 594.425 284.244L594.951 288.209ZM598.695 275.766L602.647 276.384C602.96 274.376 601.72 272.453 599.762 271.911L598.695 275.766ZM598.178 279.071L597.505 283.014C598.56 283.194 599.644 282.944 600.513 282.319C601.382 281.694 601.965 280.746 602.13 279.689L598.178 279.071ZM596.185 283.907L595.692 279.938C595.662 279.942 595.633 279.945 595.604 279.95L596.185 283.907ZM599.111 283.543L599.605 287.513C599.618 287.511 599.631 287.51 599.644 287.508L599.111 283.543ZM600.079 292.107C598.557 292.986 596.666 293.263 594.972 292.847L593.067 300.617C596.797 301.532 600.8 300.928 604.079 299.035L600.079 292.107ZM597.961 297.414L598.594 293.75L590.711 292.388L590.078 296.051L597.961 297.414ZM593.77 296.97C596.449 297.577 599.696 297.427 602.359 295.889L598.359 288.961C597.871 289.243 596.798 289.453 595.536 289.168L593.77 296.97ZM602.359 295.889C603.724 295.102 605.102 293.928 605.839 292.227C606.652 290.351 606.448 288.363 605.495 286.712L598.567 290.712C598.482 290.566 598.375 290.309 598.35 289.961C598.324 289.606 598.394 289.287 598.498 289.048C598.684 288.619 598.862 288.671 598.359 288.961L602.359 295.889ZM605.495 286.712C605.017 285.884 604.349 285.132 603.451 284.577C602.572 284.033 601.677 283.804 600.922 283.713C599.637 283.559 598.2 283.779 597.451 283.871L598.427 291.811C598.978 291.744 599.324 291.699 599.636 291.673C599.942 291.648 600.013 291.662 599.965 291.656C599.887 291.647 599.594 291.598 599.243 291.381C598.873 291.152 598.66 290.874 598.567 290.712L605.495 286.712ZM597.451 283.871L594.462 284.239L595.439 292.179L598.427 291.811L597.451 283.871ZM594.425 284.244C593.694 284.34 593.134 284.286 592.765 284.158C592.486 284.062 592.237 283.909 591.991 283.483L585.063 287.483C587.749 292.136 592.492 292.569 595.476 292.174L594.425 284.244ZM591.991 283.483C591.765 283.092 591.713 282.655 591.9 282.132C592.099 281.576 592.628 280.816 593.739 280.174L589.739 273.246C584.746 276.129 581.968 282.123 585.063 287.483L591.991 283.483ZM593.739 280.174C594.954 279.473 596.415 279.285 597.627 279.621L599.762 271.911C596.356 270.968 592.695 271.54 589.739 273.246L593.739 280.174ZM594.743 275.148L594.226 278.453L602.13 279.689L602.647 276.384L594.743 275.148ZM598.851 275.128C596.461 274.72 593.975 274.907 591.517 276.326L595.517 283.254C596.017 282.965 596.523 282.846 597.505 283.014L598.851 275.128ZM591.517 276.326C590.271 277.045 588.99 278.145 588.272 279.733C587.482 281.482 587.557 283.459 588.55 285.179L595.478 281.179C595.599 281.389 595.715 281.701 595.733 282.086C595.752 282.469 595.667 282.795 595.562 283.027C595.374 283.445 595.187 283.444 595.517 283.254L591.517 276.326ZM588.55 285.179C589.775 287.301 591.776 287.993 593.362 288.116C594.638 288.216 596.042 287.971 596.766 287.865L595.604 279.95C595.085 280.026 594.741 280.079 594.42 280.113C594.272 280.129 594.164 280.137 594.086 280.14C594.006 280.143 593.977 280.14 593.985 280.141C593.992 280.141 594.255 280.16 594.609 280.351C594.79 280.448 594.969 280.576 595.129 280.734C595.289 280.891 595.402 281.047 595.478 281.179L588.55 285.179ZM596.679 287.877L599.605 287.513L598.618 279.574L595.692 279.938L596.679 287.877ZM599.644 287.508C600.624 287.376 601.11 287.473 601.334 287.56C601.463 287.609 601.725 287.726 602.074 288.331L609.002 284.331C607.854 282.342 606.253 280.884 604.217 280.097C602.277 279.348 600.299 279.348 598.579 279.579L599.644 287.508ZM602.074 288.331C602.34 288.792 602.402 289.305 602.211 289.867C602.014 290.447 601.456 291.312 600.079 292.107L604.079 299.035C609.696 295.792 612.04 289.593 609.002 284.331L602.074 288.331ZM614.652 287.86L611.188 289.86C612.292 291.773 614.739 292.428 616.652 291.324L614.652 287.86ZM606.014 272.898L609.478 270.898C608.373 268.985 605.927 268.329 604.014 269.434L606.014 272.898ZM600.97 275.81L597.506 277.81C598.61 279.723 601.057 280.379 602.97 279.274L600.97 275.81ZM599.248 272.827L597.248 269.363C595.335 270.468 594.679 272.914 595.784 274.827L599.248 272.827ZM612.973 264.903L616.437 262.903C615.332 260.99 612.886 260.335 610.973 261.439L612.973 264.903ZM614.695 267.886L616.695 271.35C618.608 270.246 619.263 267.799 618.159 265.886L614.695 267.886ZM609.603 270.826L607.603 267.362C605.689 268.467 605.034 270.913 606.138 272.826L609.603 270.826ZM618.241 285.788L620.241 289.252C622.154 288.147 622.809 285.701 621.705 283.788L618.241 285.788ZM618.116 285.86L609.478 270.898L602.55 274.898L611.188 289.86L618.116 285.86ZM604.014 269.434L598.97 272.346L602.97 279.274L608.014 276.362L604.014 269.434ZM604.434 273.81L602.712 270.827L595.784 274.827L597.506 277.81L604.434 273.81ZM601.248 276.292L614.973 268.368L610.973 261.439L597.248 269.363L601.248 276.292ZM609.509 266.903L611.231 269.886L618.159 265.886L616.437 262.903L609.509 266.903ZM612.695 264.422L607.603 267.362L611.603 274.29L616.695 271.35L612.695 264.422ZM606.138 272.826L614.776 287.788L621.705 283.788L613.067 268.826L606.138 272.826ZM616.241 282.323L612.652 284.395L616.652 291.324L620.241 289.252L616.241 282.323ZM630.81 274.364C629.354 275.205 628.03 275.28 626.861 274.88C625.629 274.459 624.144 273.355 622.83 271.078L615.902 275.078C617.947 278.621 620.808 281.264 624.27 282.449C627.795 283.656 631.513 283.196 634.81 281.293L630.81 274.364ZM622.83 271.078C621.508 268.788 621.327 267.007 621.58 265.798C621.821 264.645 622.548 263.541 624.058 262.67L620.058 255.741C616.815 257.614 614.509 260.524 613.749 264.161C613 267.741 613.85 271.524 615.902 275.078L622.83 271.078ZM624.058 262.67C625.56 261.802 626.882 261.724 628.008 262.095C629.188 262.485 630.641 263.535 631.954 265.81L638.882 261.81C636.836 258.265 633.984 255.642 630.513 254.498C626.987 253.335 623.308 253.865 620.058 255.741L624.058 262.67ZM631.954 265.81C633.269 268.087 633.482 269.925 633.231 271.202C632.993 272.414 632.266 273.524 630.81 274.364L634.81 281.293C638.106 279.389 640.364 276.399 641.081 272.744C641.787 269.152 640.928 265.353 638.882 261.81L631.954 265.81ZM633.018 278.189C635.562 276.72 636.974 274.262 637.203 271.517C637.419 268.929 636.591 266.297 635.221 263.924L628.293 267.924C629.135 269.383 629.27 270.381 629.231 270.851C629.213 271.061 629.166 271.138 629.161 271.146C629.16 271.147 629.139 271.191 629.018 271.261L633.018 278.189ZM635.221 263.924C633.847 261.545 631.986 259.514 629.613 258.438C627.084 257.292 624.3 257.398 621.836 258.821L625.836 265.749C625.993 265.659 626.065 265.658 626.071 265.658C626.08 265.657 626.151 265.652 626.31 265.725C626.675 265.89 627.44 266.448 628.293 267.924L635.221 263.924ZM621.836 258.821C619.372 260.244 617.887 262.601 617.616 265.365C617.361 267.958 618.189 270.585 619.563 272.964L626.491 268.964C625.639 267.488 625.538 266.546 625.577 266.148C625.594 265.974 625.634 265.915 625.639 265.907C625.643 265.901 625.679 265.84 625.836 265.749L621.836 258.821ZM619.563 272.964C620.933 275.337 622.798 277.371 625.147 278.477C627.64 279.651 630.474 279.658 633.018 278.189L629.018 271.261C628.897 271.33 628.849 271.327 628.847 271.327C628.838 271.327 628.747 271.33 628.556 271.24C628.13 271.039 627.333 270.423 626.491 268.964L619.563 272.964ZM639.012 253.653L637.012 250.189C635.099 251.293 634.443 253.739 635.548 255.653L639.012 253.653ZM642.176 259.133L638.712 261.133C639.816 263.046 642.263 263.702 644.176 262.597L642.176 259.133ZM657.918 262.88L659.918 266.344C661.153 265.631 661.915 264.315 661.918 262.889C661.922 261.464 661.166 260.144 659.935 259.425L657.918 262.88ZM653.917 265.19L651.827 268.6C653.077 269.366 654.647 269.387 655.917 268.654L653.917 265.19ZM646.311 260.528L648.402 257.118C647.151 256.351 645.582 256.331 644.311 257.064L646.311 260.528ZM643.814 261.97L641.814 258.506C639.901 259.61 639.245 262.057 640.35 263.97L643.814 261.97ZM647.734 268.76L649.734 272.224C651.647 271.119 652.302 268.673 651.198 266.76L647.734 268.76ZM644.145 270.832L640.681 272.832C641.785 274.745 644.232 275.4 646.145 274.296L644.145 270.832ZM633.785 252.888L631.785 249.423C629.872 250.528 629.216 252.974 630.321 254.888L633.785 252.888ZM649.481 257.954L646.363 255.449C645.634 256.356 645.336 257.536 645.548 258.681C645.759 259.826 646.459 260.822 647.465 261.409L649.481 257.954ZM635.548 255.653L638.712 261.133L645.64 257.133L642.476 251.653L635.548 255.653ZM644.176 262.597L646.504 261.253L642.504 254.325L640.176 255.669L644.176 262.597ZM646.504 261.253C648.063 260.352 649.671 259.002 650.456 256.995C651.315 254.801 650.891 252.621 649.866 250.845L642.938 254.845C642.997 254.947 642.946 254.898 642.924 254.715C642.914 254.623 642.912 254.514 642.927 254.395C642.942 254.276 642.971 254.169 643.007 254.079C643.078 253.897 643.148 253.847 643.085 253.911C643.018 253.978 642.846 254.127 642.504 254.325L646.504 261.253ZM649.866 250.845C648.821 249.035 647.08 247.532 644.591 247.36C642.525 247.217 640.671 248.076 639.34 248.845L643.34 255.773C643.767 255.526 644.045 255.408 644.2 255.357C644.355 255.305 644.278 255.358 644.039 255.341C643.913 255.333 643.759 255.306 643.592 255.247C643.424 255.188 643.276 255.109 643.155 255.023C642.917 254.855 642.869 254.726 642.938 254.845L649.866 250.845ZM639.34 248.845L637.012 250.189L641.012 257.117L643.34 255.773L639.34 248.845ZM655.918 259.415L651.917 261.725L655.917 268.654L659.918 266.344L655.918 259.415ZM656.007 261.779L648.402 257.118L644.221 263.938L651.827 268.6L656.007 261.779ZM644.311 257.064L641.814 258.506L645.814 265.434L648.311 263.992L644.311 257.064ZM640.35 263.97L644.27 270.76L651.198 266.76L647.278 259.97L640.35 263.97ZM645.734 265.295L642.145 267.367L646.145 274.296L649.734 272.224L645.734 265.295ZM647.609 268.832L637.249 250.888L630.321 254.888L640.681 272.832L647.609 268.832ZM635.785 256.352L642.041 252.74L638.041 245.811L631.785 249.423L635.785 256.352ZM642.041 252.74C643.624 251.826 644.646 251.629 645.167 251.672C645.368 251.689 645.506 251.74 645.646 251.836C645.804 251.943 646.1 252.203 646.454 252.815L653.382 248.815C651.64 245.798 649.03 243.965 645.827 243.699C642.944 243.461 640.217 244.555 638.041 245.811L642.041 252.74ZM646.454 252.815C646.884 253.559 646.92 254.036 646.897 254.303C646.873 254.583 646.754 254.962 646.363 255.449L652.599 260.46C653.807 258.956 654.684 257.112 654.867 254.992C655.051 252.86 654.507 250.763 653.382 248.815L646.454 252.815ZM647.465 261.409L655.902 266.334L659.935 259.425L651.498 254.5L647.465 261.409ZM663.421 259.703L659.957 261.703C661.061 263.616 663.508 264.271 665.421 263.167L663.421 259.703ZM659.627 253.131L663.091 251.131C662.795 250.619 662.389 250.178 661.902 249.841L659.627 253.131ZM647.678 244.867L645.678 241.403C644.49 242.088 643.737 243.334 643.681 244.704C643.625 246.074 644.275 247.377 645.402 248.156L647.678 244.867ZM651.485 242.669L653.928 239.502C652.644 238.511 650.889 238.394 649.485 239.205L651.485 242.669ZM655.799 245.997L658.322 242.893C658.296 242.872 658.269 242.851 658.242 242.83L655.799 245.997ZM659.647 249.078L657.183 252.229C658.468 253.234 660.234 253.358 661.647 252.542L659.647 249.078ZM659.744 249.022L661.744 252.486C663.157 251.671 663.932 250.079 663.705 248.464L659.744 249.022ZM659.048 244.121L655.084 244.654C655.088 244.687 655.093 244.721 655.099 244.754L659.048 244.121ZM658.323 238.721L656.323 235.257C654.918 236.067 654.142 237.646 654.358 239.253L658.323 238.721ZM662.057 236.565L666.044 236.246C665.935 234.878 665.132 233.662 663.917 233.024C662.703 232.385 661.245 232.414 660.057 233.101L662.057 236.565ZM663.216 251.059L659.228 251.378C659.276 251.97 659.454 252.545 659.751 253.059L663.216 251.059ZM667.01 257.631L669.01 261.095C670.923 259.99 671.578 257.544 670.474 255.631L667.01 257.631ZM666.885 257.703L663.091 251.131L656.163 255.131L659.957 261.703L666.885 257.703ZM661.902 249.841L649.953 241.577L645.402 248.156L657.351 256.421L661.902 249.841ZM649.678 248.331L653.485 246.133L649.485 239.205L645.678 241.403L649.678 248.331ZM649.041 245.836L653.356 249.164L658.242 242.83L653.928 239.502L649.041 245.836ZM653.276 249.101C654.559 250.144 655.796 251.145 657.183 252.229L662.111 245.927C660.786 244.891 659.597 243.93 658.322 242.893L653.276 249.101ZM661.647 252.542L661.744 252.486L657.744 245.558L657.647 245.614L661.647 252.542ZM663.705 248.464C663.477 246.848 663.266 245.163 662.998 243.489L655.099 244.754C655.352 246.336 655.53 247.788 655.783 249.581L663.705 248.464ZM663.013 243.589L662.287 238.188L654.358 239.253L655.084 244.654L663.013 243.589ZM660.323 242.185L664.057 240.029L660.057 233.101L656.323 235.257L660.323 242.185ZM658.07 236.883L659.228 251.378L667.203 250.741L666.044 236.246L658.07 236.883ZM659.751 253.059L663.545 259.631L670.474 255.631L666.68 249.059L659.751 253.059ZM665.01 254.167L661.421 256.239L665.421 263.167L669.01 261.095L665.01 254.167Z" fill="white" mask="url(#path-4-outside-1_1604_1630)"/>
<line x1="686.261" y1="230.35" x2="818.774" y2="153.844" stroke="white" stroke-width="4" stroke-dasharray="16 8"/>
<path d="M862.901 148.138C870.021 147.452 863.628 136.744 863.628 136.744C863.628 136.744 877.838 146.963 877.402 132.368C876.966 117.772 864.035 129.049 864.035 129.049C864.035 129.049 875.165 118.771 864.035 116.421C852.904 114.072 857.961 129.049 857.961 129.049C857.961 129.049 851.248 116.421 844.738 125.232C838.229 134.042 854.648 133.807 854.648 133.807C854.648 133.807 838.489 134.277 845.581 143.85C852.673 153.424 857.961 138.682 857.961 138.682C857.961 138.682 855.781 148.824 862.901 148.138Z" stroke="white" stroke-width="4"/>
<line x1="899.85" y1="107.035" x2="1032.36" y2="30.5282" stroke="white" stroke-width="4" stroke-dasharray="16 8"/>
</svg>
