<svg width="39" height="37" viewBox="0 0 39 37" fill="none" xmlns="http://www.w3.org/2000/svg">
<path d="M21.9011 34.138C29.0209 33.4521 22.6277 22.7436 22.6277 22.7436C22.6277 22.7436 36.8382 32.9634 36.4023 18.3678C35.9664 3.77231 23.0345 15.0493 23.0345 15.0493C23.0345 15.0493 34.1646 4.77081 23.0345 2.42143C11.9044 0.0720444 16.9609 15.0493 16.9609 15.0493C16.9609 15.0493 10.2479 2.42143 3.73839 11.2316C-2.77114 20.0418 13.648 19.8068 13.648 19.8068C13.648 19.8068 -2.51089 20.2767 4.58114 29.8504C11.6732 39.4242 16.9609 24.6818 16.9609 24.6818C16.9609 24.6818 14.7813 34.824 21.9011 34.138Z" stroke="white" stroke-width="4"/>
</svg>
