<svg width="67" height="119" viewBox="0 0 67 119" fill="none" xmlns="http://www.w3.org/2000/svg">
<mask id="path-1-inside-1_1604_2211" fill="white">
<path d="M0.6875 1H66.313V119H0.6875V1Z"/>
</mask>
<path d="M66.313 115H0.6875V123H66.313V115Z" fill="#96FF00" mask="url(#path-1-inside-1_1604_2211)"/>
<path d="M66.313 0.580017L65.473 8.38002L49.513 29.5C58.993 31.9 64.633 38.98 64.633 48.82C64.633 66.58 49.513 79.42 28.993 79.42C10.633 79.42 -0.526994 69.22 0.793006 54.82L23.473 50.86C22.753 55.78 25.873 59.14 30.913 59.14C36.073 59.14 40.153 54.94 40.153 49.66C40.153 45.46 37.273 42.58 32.593 42.58C29.353 42.58 26.473 43.66 24.433 44.98L20.713 37.06L34.153 19.66H8.11301L10.393 0.580017H66.313Z" fill="#96FF00"/>
</svg>
