<svg width="1335" height="923" viewBox="0 0 1335 923" fill="none" xmlns="http://www.w3.org/2000/svg">
<path d="M667.5 20C234.415 20 20 177.772 20 372.395C20 492.918 106.469 599.31 272.537 662.853L183.969 898L466.428 711.273C527.48 720.075 594.554 724.789 667.5 724.789C1089.52 724.789 1315 567.017 1315 372.395C1315 185.312 1089 -26.095 573.848 145.115" stroke="#00503F" stroke-width="40" stroke-linejoin="round"/>
<path d="M1253.5 589C1301.5 640 1192.5 755 1137.63 785.715L1214.41 902.353L1038.56 835.701C1006.58 847.947 960.096 863 848.999 863C742.999 863 593.499 835.701 598.999 757.5" stroke="#00503F" stroke-width="40" stroke-linejoin="round"/>
</svg>
