<svg width="349" height="237" viewBox="0 0 349 237" fill="none" xmlns="http://www.w3.org/2000/svg">
<line x1="11.3458" y1="223.786" x2="42.8695" y2="203.202" stroke="white" stroke-width="2" stroke-dasharray="8 8"/>
<mask id="path-2-outside-1_1604_1766" maskUnits="userSpaceOnUse" x="56.9336" y="36.1486" width="237.52" height="166.62" fill="black">
<rect fill="white" x="56.9336" y="36.1486" width="237.52" height="166.62"/>
<path d="M77.1727 194.939C73.234 197.511 68.5923 196.329 65.4431 191.506C62.2808 186.663 63.1567 182.078 67.0953 179.506C71.034 176.934 75.5971 177.996 78.7462 182.819C81.8954 187.642 81.1114 192.368 77.1727 194.939ZM75.4932 192.367C77.7037 190.924 77.7851 187.976 75.7118 184.801C73.6255 181.605 70.9723 180.615 68.7618 182.058C66.5513 183.502 66.3912 186.329 68.4775 189.524C70.5507 192.699 73.2827 193.811 75.4932 192.367ZM92.6367 184.842C88.6981 187.414 84.0563 186.231 80.9071 181.408C77.7448 176.565 78.6207 171.98 82.5594 169.409C86.498 166.837 91.0611 167.899 94.2102 172.722C97.3594 177.545 96.5754 182.27 92.6367 184.842ZM90.9572 182.27C93.1677 180.826 93.2491 177.878 91.1758 174.703C89.0895 171.508 86.4363 170.517 84.2258 171.961C82.0153 173.404 81.8552 176.232 83.9415 179.427C86.0147 182.602 88.7467 183.713 90.9572 182.27ZM108.101 174.744C104.162 177.316 99.5203 176.134 96.3711 171.311C93.2088 166.468 94.0847 161.883 98.0234 159.311C101.962 156.739 106.525 157.801 109.674 162.624C112.823 167.447 112.039 172.173 108.101 174.744ZM106.421 172.172C108.632 170.729 108.713 167.781 106.64 164.606C104.554 161.41 101.9 160.42 99.6898 161.863C97.4793 163.307 97.3192 166.134 99.4055 169.329C101.479 172.504 104.211 173.616 106.421 172.172ZM123.565 164.647C119.626 167.219 114.984 166.036 111.835 161.213C108.673 156.37 109.549 151.786 113.487 149.214C117.426 146.642 121.989 147.704 125.138 152.527C128.287 157.35 127.503 162.075 123.565 164.647ZM121.885 162.075C124.096 160.631 124.177 157.683 122.104 154.508C120.018 151.313 117.364 150.322 115.154 151.766C112.943 153.209 112.783 156.037 114.87 159.232C116.943 162.407 119.675 163.518 121.885 162.075ZM139.029 154.549C135.09 157.121 130.448 155.939 127.299 151.116C124.137 146.273 125.013 141.688 128.951 139.116C132.89 136.544 137.453 137.606 140.602 142.429C143.751 147.252 142.967 151.978 139.029 154.549ZM137.349 151.977C139.56 150.534 139.641 147.586 137.568 144.411C135.482 141.215 132.828 140.225 130.618 141.668C128.407 143.112 128.247 145.939 130.334 149.134C132.407 152.309 135.139 153.421 137.349 151.977ZM154.493 144.452C150.554 147.024 145.912 145.841 142.763 141.018C139.601 136.175 140.477 131.591 144.415 129.019C148.354 126.447 152.917 127.509 156.066 132.332C159.215 137.155 158.431 141.88 154.493 144.452ZM152.813 141.88C155.024 140.436 155.105 137.488 153.032 134.313C150.946 131.118 148.292 130.127 146.082 131.571C143.871 133.014 143.711 135.842 145.798 139.037C147.871 142.212 150.603 143.323 152.813 141.88ZM169.957 134.354C166.018 136.926 161.376 135.744 158.227 130.921C155.065 126.078 155.941 121.493 159.879 118.921C163.818 116.349 168.381 117.411 171.53 122.234C174.679 127.057 173.895 131.783 169.957 134.354ZM168.277 131.782C170.488 130.339 170.569 127.391 168.496 124.216C166.41 121.021 163.756 120.03 161.546 121.473C159.335 122.917 159.175 125.744 161.262 128.939C163.335 132.115 166.067 133.226 168.277 131.782ZM185.421 124.257C181.482 126.829 176.84 125.646 173.691 120.823C170.529 115.98 171.405 111.396 175.343 108.824C179.282 106.252 183.845 107.314 186.994 112.137C190.143 116.96 189.359 121.685 185.421 124.257ZM183.741 121.685C185.952 120.241 186.033 117.293 183.96 114.118C181.874 110.923 179.22 109.932 177.01 111.376C174.799 112.819 174.639 115.647 176.726 118.842C178.799 122.017 181.531 123.128 183.741 121.685ZM200.684 114.291C197.067 116.653 193.571 116.04 190.343 111.097L185.003 102.918L187.977 100.976L193.488 109.416C195.509 112.511 197.256 112.86 199.004 111.719C200.773 110.564 201.216 108.784 199.195 105.689L193.684 97.2493L196.537 95.386L201.878 103.565C205.106 108.508 204.321 111.916 200.684 114.291ZM204.625 93.4589L207.59 98.0005L209.519 96.7408C211.428 95.4943 211.948 94.0081 210.912 92.4206C209.862 90.813 208.463 90.9527 206.554 92.1993L204.625 93.4589ZM221.239 100.467L217.924 102.632L211.195 99.0001L209.125 100.352L212.799 105.978L209.825 107.92L200.115 93.0498L205.3 89.6644C208.415 87.6306 211.595 87.1017 213.826 90.518C215.282 92.7485 215.062 94.8699 213.787 96.6484L221.239 100.467ZM232.701 93.3847C230.711 94.6838 228.21 95.1991 225.858 94.7573L226.228 91.5922C227.936 91.8814 229.775 91.6261 231.082 90.7732C232.629 89.7628 233.02 88.5617 232.337 87.5167C231.616 86.4115 230.488 86.6603 228.795 86.9637L226.254 87.4187C224.34 87.7799 222.046 87.5583 220.629 85.388C219.041 82.9564 219.951 79.6967 222.965 77.7284C224.693 76.6 226.868 76.1547 228.874 76.5933L228.587 79.4463C227.131 79.2792 225.857 79.4801 224.631 80.2805C223.325 81.1334 222.862 82.2673 223.505 83.252C224.2 84.317 225.515 84.0034 227.109 83.6791L229.596 83.2302C231.89 82.7928 233.823 83.1641 235.227 85.3143C236.815 87.7458 236.137 91.1409 232.701 93.3847ZM243.099 86.1937L235.003 73.7949L230.823 76.5242L229.209 74.0525L240.583 66.6256L242.197 69.0974L237.977 71.8529L246.073 84.2517L243.099 86.1937ZM258.168 76.7552C254.23 79.3271 249.588 78.1445 246.439 73.3216C243.276 68.4786 244.152 63.8938 248.091 61.322C252.03 58.7502 256.593 59.8122 259.742 64.6351C262.891 69.458 262.107 74.1834 258.168 76.7552ZM256.489 74.183C258.699 72.7397 258.781 69.7915 256.707 66.6164C254.621 63.4213 251.968 62.4307 249.757 63.8741C247.547 65.3175 247.387 68.1451 249.473 71.3402C251.546 74.5153 254.278 75.6264 256.489 74.183ZM262.34 55.7728L265.305 60.3143L267.235 59.0546C269.144 57.8081 269.664 56.322 268.627 54.7344C267.577 53.1268 266.178 53.2665 264.269 54.5131L262.34 55.7728ZM278.955 62.7811L275.639 64.9462L268.911 61.314L266.841 62.6655L270.515 68.2922L267.541 70.2342L257.831 55.3636L263.015 51.9782C266.13 49.9444 269.31 49.4156 271.541 52.8318C272.997 55.0624 272.778 57.1838 271.502 58.9622L278.955 62.7811ZM283.515 59.8035L279.959 54.3577L269.344 47.846L272.499 45.7859L276.348 48.432C277.491 49.2617 278.576 50.0442 279.786 50.8879L279.866 50.8354C279.58 49.3882 279.34 48.0545 279.04 46.6737L278.166 42.0856L281.26 40.0648L282.933 52.4157L286.489 57.8615L283.515 59.8035Z"/>
</mask>
<path d="M77.1727 194.939C73.234 197.511 68.5923 196.329 65.4431 191.506C62.2808 186.663 63.1567 182.078 67.0953 179.506C71.034 176.934 75.5971 177.996 78.7462 182.819C81.8954 187.642 81.1114 192.368 77.1727 194.939ZM75.4932 192.367C77.7037 190.924 77.7851 187.976 75.7118 184.801C73.6255 181.605 70.9723 180.615 68.7618 182.058C66.5513 183.502 66.3912 186.329 68.4775 189.524C70.5507 192.699 73.2827 193.811 75.4932 192.367ZM92.6367 184.842C88.6981 187.414 84.0563 186.231 80.9071 181.408C77.7448 176.565 78.6207 171.98 82.5594 169.409C86.498 166.837 91.0611 167.899 94.2102 172.722C97.3594 177.545 96.5754 182.27 92.6367 184.842ZM90.9572 182.27C93.1677 180.826 93.2491 177.878 91.1758 174.703C89.0895 171.508 86.4363 170.517 84.2258 171.961C82.0153 173.404 81.8552 176.232 83.9415 179.427C86.0147 182.602 88.7467 183.713 90.9572 182.27ZM108.101 174.744C104.162 177.316 99.5203 176.134 96.3711 171.311C93.2088 166.468 94.0847 161.883 98.0234 159.311C101.962 156.739 106.525 157.801 109.674 162.624C112.823 167.447 112.039 172.173 108.101 174.744ZM106.421 172.172C108.632 170.729 108.713 167.781 106.64 164.606C104.554 161.41 101.9 160.42 99.6898 161.863C97.4793 163.307 97.3192 166.134 99.4055 169.329C101.479 172.504 104.211 173.616 106.421 172.172ZM123.565 164.647C119.626 167.219 114.984 166.036 111.835 161.213C108.673 156.37 109.549 151.786 113.487 149.214C117.426 146.642 121.989 147.704 125.138 152.527C128.287 157.35 127.503 162.075 123.565 164.647ZM121.885 162.075C124.096 160.631 124.177 157.683 122.104 154.508C120.018 151.313 117.364 150.322 115.154 151.766C112.943 153.209 112.783 156.037 114.87 159.232C116.943 162.407 119.675 163.518 121.885 162.075ZM139.029 154.549C135.09 157.121 130.448 155.939 127.299 151.116C124.137 146.273 125.013 141.688 128.951 139.116C132.89 136.544 137.453 137.606 140.602 142.429C143.751 147.252 142.967 151.978 139.029 154.549ZM137.349 151.977C139.56 150.534 139.641 147.586 137.568 144.411C135.482 141.215 132.828 140.225 130.618 141.668C128.407 143.112 128.247 145.939 130.334 149.134C132.407 152.309 135.139 153.421 137.349 151.977ZM154.493 144.452C150.554 147.024 145.912 145.841 142.763 141.018C139.601 136.175 140.477 131.591 144.415 129.019C148.354 126.447 152.917 127.509 156.066 132.332C159.215 137.155 158.431 141.88 154.493 144.452ZM152.813 141.88C155.024 140.436 155.105 137.488 153.032 134.313C150.946 131.118 148.292 130.127 146.082 131.571C143.871 133.014 143.711 135.842 145.798 139.037C147.871 142.212 150.603 143.323 152.813 141.88ZM169.957 134.354C166.018 136.926 161.376 135.744 158.227 130.921C155.065 126.078 155.941 121.493 159.879 118.921C163.818 116.349 168.381 117.411 171.53 122.234C174.679 127.057 173.895 131.783 169.957 134.354ZM168.277 131.782C170.488 130.339 170.569 127.391 168.496 124.216C166.41 121.021 163.756 120.03 161.546 121.473C159.335 122.917 159.175 125.744 161.262 128.939C163.335 132.115 166.067 133.226 168.277 131.782ZM185.421 124.257C181.482 126.829 176.84 125.646 173.691 120.823C170.529 115.98 171.405 111.396 175.343 108.824C179.282 106.252 183.845 107.314 186.994 112.137C190.143 116.96 189.359 121.685 185.421 124.257ZM183.741 121.685C185.952 120.241 186.033 117.293 183.96 114.118C181.874 110.923 179.22 109.932 177.01 111.376C174.799 112.819 174.639 115.647 176.726 118.842C178.799 122.017 181.531 123.128 183.741 121.685ZM200.684 114.291C197.067 116.653 193.571 116.04 190.343 111.097L185.003 102.918L187.977 100.976L193.488 109.416C195.509 112.511 197.256 112.86 199.004 111.719C200.773 110.564 201.216 108.784 199.195 105.689L193.684 97.2493L196.537 95.386L201.878 103.565C205.106 108.508 204.321 111.916 200.684 114.291ZM204.625 93.4589L207.59 98.0005L209.519 96.7408C211.428 95.4943 211.948 94.0081 210.912 92.4206C209.862 90.813 208.463 90.9527 206.554 92.1993L204.625 93.4589ZM221.239 100.467L217.924 102.632L211.195 99.0001L209.125 100.352L212.799 105.978L209.825 107.92L200.115 93.0498L205.3 89.6644C208.415 87.6306 211.595 87.1017 213.826 90.518C215.282 92.7485 215.062 94.8699 213.787 96.6484L221.239 100.467ZM232.701 93.3847C230.711 94.6838 228.21 95.1991 225.858 94.7573L226.228 91.5922C227.936 91.8814 229.775 91.6261 231.082 90.7732C232.629 89.7628 233.02 88.5617 232.337 87.5167C231.616 86.4115 230.488 86.6603 228.795 86.9637L226.254 87.4187C224.34 87.7799 222.046 87.5583 220.629 85.388C219.041 82.9564 219.951 79.6967 222.965 77.7284C224.693 76.6 226.868 76.1547 228.874 76.5933L228.587 79.4463C227.131 79.2792 225.857 79.4801 224.631 80.2805C223.325 81.1334 222.862 82.2673 223.505 83.252C224.2 84.317 225.515 84.0034 227.109 83.6791L229.596 83.2302C231.89 82.7928 233.823 83.1641 235.227 85.3143C236.815 87.7458 236.137 91.1409 232.701 93.3847ZM243.099 86.1937L235.003 73.7949L230.823 76.5242L229.209 74.0525L240.583 66.6256L242.197 69.0974L237.977 71.8529L246.073 84.2517L243.099 86.1937ZM258.168 76.7552C254.23 79.3271 249.588 78.1445 246.439 73.3216C243.276 68.4786 244.152 63.8938 248.091 61.322C252.03 58.7502 256.593 59.8122 259.742 64.6351C262.891 69.458 262.107 74.1834 258.168 76.7552ZM256.489 74.183C258.699 72.7397 258.781 69.7915 256.707 66.6164C254.621 63.4213 251.968 62.4307 249.757 63.8741C247.547 65.3175 247.387 68.1451 249.473 71.3402C251.546 74.5153 254.278 75.6264 256.489 74.183ZM262.34 55.7728L265.305 60.3143L267.235 59.0546C269.144 57.8081 269.664 56.322 268.627 54.7344C267.577 53.1268 266.178 53.2665 264.269 54.5131L262.34 55.7728ZM278.955 62.7811L275.639 64.9462L268.911 61.314L266.841 62.6655L270.515 68.2922L267.541 70.2342L257.831 55.3636L263.015 51.9782C266.13 49.9444 269.31 49.4156 271.541 52.8318C272.997 55.0624 272.778 57.1838 271.502 58.9622L278.955 62.7811ZM283.515 59.8035L279.959 54.3577L269.344 47.846L272.499 45.7859L276.348 48.432C277.491 49.2617 278.576 50.0442 279.786 50.8879L279.866 50.8354C279.58 49.3882 279.34 48.0545 279.04 46.6737L278.166 42.0856L281.26 40.0648L282.933 52.4157L286.489 57.8615L283.515 59.8035Z" fill="#00503F"/>
<path d="M76.0793 193.265C74.5547 194.26 73.0019 194.479 71.5546 194.071C70.0758 193.654 68.4925 192.518 67.1177 190.412L63.7685 192.599C65.543 195.317 67.8551 197.183 70.4691 197.921C73.1147 198.666 75.8521 198.19 78.2662 196.614L76.0793 193.265ZM67.1177 190.412C65.736 188.296 65.3588 186.43 65.5835 184.956C65.8039 183.51 66.6385 182.193 68.1888 181.181L66.0019 177.832C63.6135 179.391 62.0408 181.653 61.6292 184.353C61.2219 187.025 61.9879 189.872 63.7685 192.599L67.1177 190.412ZM68.1888 181.181C69.7356 180.171 71.2791 179.938 72.6958 180.321C74.1403 180.71 75.6975 181.808 77.0716 183.913L80.4209 181.726C78.6458 179.007 76.3469 177.163 73.7379 176.459C71.1012 175.747 68.3938 176.27 66.0019 177.832L68.1888 181.181ZM77.0716 183.913C78.4464 186.018 78.8497 187.925 78.6367 189.446C78.4283 190.935 77.6038 192.269 76.0793 193.265L78.2662 196.614C80.6804 195.038 82.2172 192.723 82.5981 190.001C82.9746 187.311 82.1953 184.443 80.4209 181.726L77.0716 183.913ZM76.5866 194.042C78.277 192.938 79.1532 191.215 79.2081 189.29C79.2607 187.445 78.5673 185.516 77.3865 183.707L74.0372 185.894C74.9296 187.261 75.2321 188.393 75.2097 189.176C75.1896 189.88 74.9199 190.353 74.3997 190.693L76.5866 194.042ZM77.3865 183.707C76.2007 181.891 74.7222 180.492 73.008 179.826C71.2136 179.128 69.32 179.305 67.6683 180.384L69.8553 183.733C70.414 183.368 70.9523 183.318 71.5588 183.554C72.2454 183.821 73.1366 184.515 74.0372 185.894L77.3865 183.707ZM67.6683 180.384C66.0166 181.462 65.0932 183.125 65.0102 185.048C64.9309 186.886 65.6171 188.802 66.8029 190.618L70.1521 188.431C69.2515 187.052 68.9747 185.957 69.0065 185.221C69.0345 184.571 69.2965 184.098 69.8553 183.733L67.6683 180.384ZM66.8029 190.618C67.9838 192.426 69.4713 193.837 71.1821 194.531C72.9663 195.255 74.8963 195.146 76.5866 194.042L74.3997 190.693C73.8795 191.032 73.3383 191.089 72.6856 190.824C71.9595 190.53 71.0445 189.797 70.1521 188.431L66.8029 190.618ZM91.5433 183.167C90.0187 184.163 88.4659 184.381 87.0186 183.973C85.5398 183.556 83.9565 182.42 82.5817 180.315L79.2325 182.502C81.007 185.219 83.3191 187.086 85.9331 187.823C88.5787 188.569 91.3161 188.093 93.7302 186.517L91.5433 183.167ZM82.5817 180.315C81.2 178.199 80.8228 176.332 81.0475 174.858C81.2679 173.412 82.1025 172.096 83.6528 171.083L81.4659 167.734C79.0775 169.294 77.5048 171.555 77.0932 174.255C76.6859 176.927 77.4519 179.775 79.2325 182.502L82.5817 180.315ZM83.6528 171.083C85.1996 170.073 86.7431 169.841 88.1598 170.223C89.6043 170.613 91.1615 171.711 92.5356 173.815L95.8849 171.628C94.1098 168.91 91.8109 167.065 89.2019 166.361C86.5652 165.65 83.8578 166.172 81.4659 167.734L83.6528 171.083ZM92.5356 173.815C93.9104 175.921 94.3137 177.827 94.1008 179.349C93.8923 180.838 93.0678 182.172 91.5433 183.167L93.7302 186.517C96.1444 184.94 97.6812 182.625 98.0622 179.903C98.4386 177.213 97.6593 174.346 95.8849 171.628L92.5356 173.815ZM92.0506 183.944C93.741 182.841 94.6172 181.117 94.6721 179.193C94.7248 177.347 94.0313 175.418 92.8505 173.61L89.5012 175.797C90.3936 177.163 90.6961 178.295 90.6737 179.079C90.6536 179.783 90.3839 180.255 89.8637 180.595L92.0506 183.944ZM92.8505 173.61C91.6647 171.794 90.1862 170.395 88.472 169.728C86.6777 169.031 84.784 169.208 83.1323 170.286L85.3193 173.635C85.878 173.271 86.4163 173.221 87.0228 173.457C87.7094 173.723 88.6007 174.417 89.5012 175.797L92.8505 173.61ZM83.1323 170.286C81.4806 171.365 80.5572 173.027 80.4742 174.951C80.3949 176.788 81.0812 178.704 82.2669 180.52L85.6161 178.333C84.7156 176.954 84.4387 175.859 84.4705 175.123C84.4986 174.473 84.7605 174 85.3193 173.635L83.1323 170.286ZM82.2669 180.52C83.4478 182.329 84.9353 183.74 86.6461 184.434C88.4303 185.157 90.3603 185.048 92.0506 183.944L89.8637 180.595C89.3435 180.935 88.8023 180.992 88.1496 180.727C87.4235 180.432 86.5085 179.7 85.6161 178.333L82.2669 180.52ZM107.007 173.07C105.483 174.065 103.93 174.284 102.483 173.876C101.004 173.459 99.4205 172.323 98.0457 170.217L94.6965 172.404C96.471 175.122 98.7831 176.988 101.397 177.726C104.043 178.472 106.78 177.995 109.194 176.419L107.007 173.07ZM98.0457 170.217C96.664 168.101 96.2868 166.235 96.5115 164.761C96.7319 163.315 97.5665 161.998 99.1168 160.986L96.9299 157.637C94.5415 159.196 92.9688 161.458 92.5572 164.158C92.1499 166.83 92.9159 169.677 94.6965 172.404L98.0457 170.217ZM99.1168 160.986C100.664 159.976 102.207 159.743 103.624 160.126C105.068 160.515 106.626 161.613 108 163.718L111.349 161.531C109.574 158.812 107.275 156.968 104.666 156.264C102.029 155.552 99.3218 156.075 96.9299 157.637L99.1168 160.986ZM108 163.718C109.374 165.823 109.778 167.73 109.565 169.251C109.356 170.74 108.532 172.074 107.007 173.07L109.194 176.419C111.608 174.843 113.145 172.528 113.526 169.806C113.903 167.116 113.123 164.248 111.349 161.531L108 163.718ZM107.515 173.847C109.205 172.743 110.081 171.02 110.136 169.095C110.189 167.25 109.495 165.321 108.314 163.512L104.965 165.699C105.858 167.066 106.16 168.198 106.138 168.981C106.118 169.685 105.848 170.158 105.328 170.498L107.515 173.847ZM108.314 163.512C107.129 161.696 105.65 160.297 103.936 159.631C102.142 158.933 100.248 159.11 98.5963 160.189L100.783 163.538C101.342 163.173 101.88 163.123 102.487 163.359C103.173 163.626 104.065 164.32 104.965 165.699L108.314 163.512ZM98.5963 160.189C96.9446 161.267 96.0213 162.93 95.9382 164.853C95.8589 166.691 96.5452 168.607 97.7309 170.423L101.08 168.236C100.18 166.857 99.9027 165.762 99.9345 165.026C99.9626 164.376 100.224 163.903 100.783 163.538L98.5963 160.189ZM97.7309 170.423C98.9118 172.231 100.399 173.642 102.11 174.336C103.894 175.06 105.824 174.951 107.515 173.847L105.328 170.498C104.808 170.837 104.266 170.894 103.614 170.629C102.888 170.335 101.972 169.603 101.08 168.236L97.7309 170.423ZM122.471 162.972C120.947 163.968 119.394 164.186 117.947 163.778C116.468 163.361 114.884 162.225 113.51 160.12L110.161 162.307C111.935 165.024 114.247 166.891 116.861 167.628C119.507 168.374 122.244 167.898 124.658 166.322L122.471 162.972ZM113.51 160.12C112.128 158.004 111.751 156.137 111.976 154.663C112.196 153.217 113.03 151.901 114.581 150.888L112.394 147.539C110.006 149.099 108.433 151.36 108.021 154.06C107.614 156.732 108.38 159.58 110.161 162.307L113.51 160.12ZM114.581 150.888C116.128 149.878 117.671 149.646 119.088 150.028C120.532 150.418 122.09 151.516 123.464 153.62L126.813 151.433C125.038 148.715 122.739 146.87 120.13 146.166C117.493 145.455 114.786 145.977 112.394 147.539L114.581 150.888ZM123.464 153.62C124.838 155.726 125.242 157.632 125.029 159.154C124.82 160.643 123.996 161.977 122.471 162.972L124.658 166.322C127.072 164.745 128.609 162.43 128.99 159.708C129.367 157.018 128.587 154.151 126.813 151.433L123.464 153.62ZM122.979 163.749C124.669 162.646 125.545 160.922 125.6 158.998C125.653 157.152 124.959 155.223 123.778 153.415L120.429 155.602C121.322 156.968 121.624 158.1 121.602 158.884C121.582 159.588 121.312 160.06 120.792 160.4L122.979 163.749ZM123.778 153.415C122.593 151.599 121.114 150.2 119.4 149.533C117.606 148.836 115.712 149.013 114.06 150.091L116.247 153.44C116.806 153.076 117.344 153.026 117.951 153.262C118.637 153.529 119.529 154.222 120.429 155.602L123.778 153.415ZM114.06 150.091C112.409 151.17 111.485 152.832 111.402 154.756C111.323 156.593 112.009 158.509 113.195 160.325L116.544 158.138C115.644 156.759 115.367 155.664 115.399 154.928C115.427 154.278 115.689 153.805 116.247 153.44L114.06 150.091ZM113.195 160.325C114.376 162.134 115.863 163.545 117.574 164.239C119.358 164.962 121.288 164.853 122.979 163.749L120.792 160.4C120.272 160.74 119.73 160.797 119.078 160.532C118.352 160.237 117.436 159.505 116.544 158.138L113.195 160.325ZM137.935 152.875C136.411 153.87 134.858 154.089 133.411 153.681C131.932 153.264 130.348 152.128 128.974 150.022L125.625 152.209C127.399 154.927 129.711 156.793 132.325 157.531C134.971 158.277 137.708 157.8 140.122 156.224L137.935 152.875ZM128.974 150.022C127.592 147.906 127.215 146.04 127.44 144.566C127.66 143.12 128.495 141.803 130.045 140.791L127.858 137.442C125.47 139.001 123.897 141.263 123.485 143.963C123.078 146.635 123.844 149.482 125.625 152.209L128.974 150.022ZM130.045 140.791C131.592 139.781 133.135 139.548 134.552 139.931C135.996 140.32 137.554 141.418 138.928 143.523L142.277 141.336C140.502 138.617 138.203 136.773 135.594 136.069C132.957 135.357 130.25 135.88 127.858 137.442L130.045 140.791ZM138.928 143.523C140.302 145.628 140.706 147.535 140.493 149.056C140.284 150.546 139.46 151.879 137.935 152.875L140.122 156.224C142.536 154.648 144.073 152.333 144.454 149.611C144.831 146.921 144.051 144.053 142.277 141.336L138.928 143.523ZM138.443 153.652C140.133 152.548 141.009 150.825 141.064 148.9C141.117 147.055 140.423 145.126 139.242 143.317L135.893 145.504C136.786 146.871 137.088 148.003 137.066 148.786C137.046 149.49 136.776 149.963 136.256 150.303L138.443 153.652ZM139.242 143.317C138.057 141.501 136.578 140.102 134.864 139.436C133.07 138.738 131.176 138.915 129.524 139.994L131.711 143.343C132.27 142.978 132.808 142.928 133.415 143.164C134.101 143.431 134.993 144.125 135.893 145.504L139.242 143.317ZM129.524 139.994C127.873 141.072 126.949 142.735 126.866 144.658C126.787 146.496 127.473 148.412 128.659 150.228L132.008 148.041C131.108 146.662 130.831 145.567 130.863 144.831C130.891 144.181 131.153 143.708 131.711 143.343L129.524 139.994ZM128.659 150.228C129.84 152.036 131.327 153.447 133.038 154.141C134.822 154.865 136.752 154.756 138.443 153.652L136.256 150.303C135.736 150.642 135.194 150.699 134.542 150.434C133.816 150.14 132.901 149.408 132.008 148.041L128.659 150.228ZM153.399 142.777C151.875 143.773 150.322 143.991 148.875 143.583C147.396 143.166 145.812 142.03 144.438 139.925L141.089 142.112C142.863 144.829 145.175 146.696 147.789 147.433C150.435 148.179 153.172 147.703 155.586 146.127L153.399 142.777ZM144.438 139.925C143.056 137.809 142.679 135.942 142.904 134.468C143.124 133.022 143.959 131.706 145.509 130.693L143.322 127.344C140.934 128.904 139.361 131.165 138.949 133.865C138.542 136.537 139.308 139.385 141.089 142.112L144.438 139.925ZM145.509 130.693C147.056 129.683 148.599 129.451 150.016 129.833C151.46 130.223 153.018 131.321 154.392 133.425L157.741 131.238C155.966 128.52 153.667 126.675 151.058 125.971C148.421 125.26 145.714 125.782 143.322 127.344L145.509 130.693ZM154.392 133.425C155.766 135.531 156.17 137.437 155.957 138.959C155.748 140.448 154.924 141.782 153.399 142.777L155.586 146.127C158 144.55 159.537 142.235 159.918 139.513C160.295 136.823 159.515 133.956 157.741 131.238L154.392 133.425ZM153.907 143.554C155.597 142.451 156.473 140.728 156.528 138.803C156.581 136.957 155.887 135.028 154.706 133.22L151.357 135.407C152.25 136.773 152.552 137.906 152.53 138.689C152.51 139.393 152.24 139.865 151.72 140.205L153.907 143.554ZM154.706 133.22C153.521 131.404 152.042 130.005 150.328 129.338C148.534 128.641 146.64 128.818 144.988 129.896L147.175 133.245C147.734 132.881 148.272 132.831 148.879 133.067C149.565 133.334 150.457 134.027 151.357 135.407L154.706 133.22ZM144.988 129.896C143.337 130.975 142.413 132.637 142.33 134.561C142.251 136.398 142.937 138.314 144.123 140.13L147.472 137.943C146.572 136.564 146.295 135.469 146.327 134.733C146.355 134.083 146.617 133.61 147.175 133.245L144.988 129.896ZM144.123 140.13C145.304 141.939 146.791 143.35 148.502 144.044C150.286 144.767 152.216 144.658 153.907 143.554L151.72 140.205C151.2 140.545 150.658 140.602 150.006 140.337C149.28 140.042 148.365 139.31 147.472 137.943L144.123 140.13ZM168.863 132.68C167.339 133.675 165.786 133.894 164.339 133.486C162.86 133.069 161.277 131.933 159.902 129.827L156.553 132.014C158.327 134.732 160.639 136.599 163.253 137.336C165.899 138.082 168.636 137.605 171.05 136.029L168.863 132.68ZM159.902 129.827C158.52 127.711 158.143 125.845 158.368 124.371C158.588 122.925 159.423 121.608 160.973 120.596L158.786 117.247C156.398 118.806 154.825 121.068 154.413 123.768C154.006 126.44 154.772 129.287 156.553 132.014L159.902 129.827ZM160.973 120.596C162.52 119.586 164.063 119.353 165.48 119.736C166.924 120.125 168.482 121.223 169.856 123.328L173.205 121.141C171.43 118.422 169.131 116.578 166.522 115.874C163.885 115.162 161.178 115.685 158.786 117.247L160.973 120.596ZM169.856 123.328C171.23 125.433 171.634 127.34 171.421 128.861C171.212 130.351 170.388 131.684 168.863 132.68L171.05 136.029C173.464 134.453 175.001 132.138 175.382 129.416C175.759 126.726 174.979 123.858 173.205 121.141L169.856 123.328ZM169.371 133.457C171.061 132.353 171.937 130.63 171.992 128.705C172.045 126.86 171.351 124.931 170.17 123.122L166.821 125.309C167.714 126.676 168.016 127.808 167.994 128.591C167.974 129.295 167.704 129.768 167.184 130.108L169.371 133.457ZM170.17 123.122C168.985 121.306 167.506 119.907 165.792 119.241C163.998 118.543 162.104 118.72 160.452 119.799L162.639 123.148C163.198 122.783 163.736 122.733 164.343 122.969C165.029 123.236 165.921 123.93 166.821 125.309L170.17 123.122ZM160.452 119.799C158.801 120.877 157.877 122.54 157.794 124.463C157.715 126.301 158.401 128.217 159.587 130.033L162.936 127.846C162.036 126.467 161.759 125.372 161.791 124.636C161.819 123.986 162.081 123.513 162.639 123.148L160.452 119.799ZM159.587 130.033C160.768 131.841 162.255 133.252 163.966 133.946C165.75 134.67 167.68 134.561 169.371 133.457L167.184 130.108C166.664 130.447 166.122 130.504 165.47 130.239C164.744 129.945 163.829 129.213 162.936 127.846L159.587 130.033ZM184.327 122.582C182.803 123.578 181.25 123.796 179.803 123.388C178.324 122.971 176.741 121.835 175.366 119.73L172.017 121.917C173.791 124.634 176.103 126.501 178.717 127.238C181.363 127.984 184.1 127.508 186.514 125.932L184.327 122.582ZM175.366 119.73C173.984 117.614 173.607 115.747 173.832 114.273C174.052 112.827 174.887 111.511 176.437 110.498L174.25 107.149C171.862 108.709 170.289 110.97 169.877 113.67C169.47 116.342 170.236 119.19 172.017 121.917L175.366 119.73ZM176.437 110.498C177.984 109.488 179.527 109.256 180.944 109.638C182.388 110.028 183.946 111.126 185.32 113.23L188.669 111.043C186.894 108.325 184.595 106.48 181.986 105.776C179.349 105.065 176.642 105.587 174.25 107.149L176.437 110.498ZM185.32 113.23C186.694 115.336 187.098 117.242 186.885 118.764C186.676 120.253 185.852 121.587 184.327 122.582L186.514 125.932C188.928 124.355 190.465 122.04 190.846 119.318C191.223 116.628 190.443 113.761 188.669 111.043L185.32 113.23ZM184.835 123.359C186.525 122.256 187.401 120.533 187.456 118.608C187.509 116.763 186.815 114.833 185.635 113.025L182.285 115.212C183.178 116.578 183.48 117.711 183.458 118.494C183.438 119.198 183.168 119.671 182.648 120.01L184.835 123.359ZM185.635 113.025C184.449 111.209 182.97 109.81 181.256 109.143C179.462 108.446 177.568 108.623 175.916 109.701L178.103 113.05C178.662 112.686 179.2 112.636 179.807 112.872C180.493 113.139 181.385 113.832 182.285 115.212L185.635 113.025ZM175.916 109.701C174.265 110.78 173.341 112.442 173.258 114.366C173.179 116.203 173.865 118.119 175.051 119.935L178.4 117.749C177.5 116.369 177.223 115.274 177.255 114.538C177.283 113.888 177.545 113.415 178.103 113.05L175.916 109.701ZM175.051 119.935C176.232 121.744 177.719 123.155 179.43 123.849C181.214 124.572 183.144 124.463 184.835 123.359L182.648 120.01C182.128 120.35 181.586 120.407 180.934 120.142C180.208 119.847 179.293 119.115 178.4 117.749L175.051 119.935ZM185.003 102.918L183.909 101.243C182.984 101.847 182.724 103.086 183.328 104.011L185.003 102.918ZM187.977 100.976L189.651 99.8824C189.048 98.9575 187.808 98.6973 186.883 99.3012L187.977 100.976ZM193.684 97.2493L192.59 95.5747C191.666 96.1786 191.405 97.4179 192.009 98.3428L193.684 97.2493ZM196.537 95.386L198.212 94.2926C197.608 93.3677 196.369 93.1075 195.444 93.7114L196.537 95.386ZM199.59 112.616C198.094 113.593 196.907 113.782 195.898 113.505C194.827 113.21 193.496 112.267 192.018 110.003L188.669 112.19C190.418 114.87 192.449 116.704 194.837 117.362C197.287 118.036 199.657 117.35 201.777 115.965L199.59 112.616ZM192.018 110.003L186.677 101.824L183.328 104.011L188.669 112.19L192.018 110.003ZM186.096 104.592L189.07 102.65L186.883 99.3012L183.909 101.243L186.096 104.592ZM186.302 102.069L191.813 110.509L195.162 108.322L189.651 99.8824L186.302 102.069ZM191.813 110.509C192.909 112.187 194.149 113.482 195.662 114.034C197.33 114.643 198.865 114.198 200.098 113.393L197.911 110.044C197.395 110.381 197.183 110.331 197.034 110.277C196.731 110.167 196.088 109.739 195.162 108.322L191.813 110.509ZM200.098 113.393C201.33 112.588 202.37 111.362 202.514 109.593C202.646 107.966 201.975 106.289 200.87 104.596L197.52 106.783C198.435 108.184 198.553 108.945 198.527 109.27C198.512 109.453 198.446 109.694 197.911 110.044L200.098 113.393ZM200.87 104.596L195.358 96.1558L192.009 98.3428L197.52 106.783L200.87 104.596ZM194.777 98.9239L197.631 97.0607L195.444 93.7114L192.59 95.5747L194.777 98.9239ZM194.863 96.4795L200.203 104.658L203.553 102.471L198.212 94.2926L194.863 96.4795ZM200.203 104.658C201.688 106.932 202.027 108.524 201.875 109.614C201.732 110.631 201.099 111.631 199.59 112.616L201.777 115.965C203.906 114.575 205.484 112.684 205.836 110.168C206.178 107.724 205.296 105.141 203.553 102.471L200.203 104.658ZM204.625 93.4589L203.531 91.7843C202.606 92.3882 202.346 93.6275 202.95 94.5524L204.625 93.4589ZM207.59 98.0005L205.916 99.094C206.519 100.019 207.759 100.279 208.684 99.6751L207.59 98.0005ZM221.239 100.467L222.333 102.142C222.93 101.752 223.274 101.074 223.237 100.362C223.199 99.6506 222.786 99.0124 222.152 98.6874L221.239 100.467ZM217.924 102.632L216.974 104.392C217.619 104.741 218.403 104.708 219.017 104.307L217.924 102.632ZM211.195 99.0001L212.145 97.2402C211.5 96.8918 210.716 96.9246 210.102 97.3255L211.195 99.0001ZM209.125 100.352L208.032 98.677C207.107 99.2809 206.847 100.52 207.451 101.445L209.125 100.352ZM212.799 105.978L213.893 107.653C214.818 107.049 215.078 105.81 214.474 104.885L212.799 105.978ZM209.825 107.92L208.151 109.014C208.755 109.939 209.994 110.199 210.919 109.595L209.825 107.92ZM200.115 93.0498L199.022 91.3752C198.097 91.9791 197.837 93.2184 198.441 94.1432L200.115 93.0498ZM213.787 96.6484L212.162 95.4831C211.823 95.9561 211.706 96.5535 211.843 97.1192C211.98 97.6849 212.357 98.1629 212.875 98.4283L213.787 96.6484ZM202.95 94.5524L205.916 99.094L209.265 96.907L206.299 92.3655L202.95 94.5524ZM208.684 99.6751L210.613 98.4154L208.426 95.0662L206.497 96.3259L208.684 99.6751ZM210.613 98.4154C211.765 97.6634 212.783 96.6605 213.22 95.3343C213.688 93.9132 213.363 92.5161 212.586 91.3271L209.237 93.5141C209.377 93.7286 209.418 93.8683 209.43 93.9365C209.44 93.9943 209.437 94.0339 209.421 94.0828C209.379 94.2082 209.183 94.5717 208.426 95.0662L210.613 98.4154ZM212.586 91.3271C211.796 90.1173 210.631 89.2617 209.083 89.2398C207.749 89.2209 206.502 89.8446 205.46 90.5247L207.647 93.8739C208.053 93.6092 208.374 93.4415 208.623 93.3436C208.873 93.2457 208.997 93.239 209.027 93.2394C209.039 93.2396 209.033 93.2407 209.018 93.2362C209.002 93.2315 208.993 93.226 208.994 93.227C208.999 93.2301 209.09 93.289 209.237 93.5141L212.586 91.3271ZM205.46 90.5247L203.531 91.7843L205.718 95.1335L207.647 93.8739L205.46 90.5247ZM220.146 98.7927L216.83 100.958L219.017 104.307L222.333 102.142L220.146 98.7927ZM218.874 100.872L212.145 97.2402L210.245 100.76L216.974 104.392L218.874 100.872ZM210.102 97.3255L208.032 98.677L210.219 102.026L212.289 100.675L210.102 97.3255ZM207.451 101.445L211.125 107.072L214.474 104.885L210.8 99.2582L207.451 101.445ZM211.706 104.304L208.732 106.246L210.919 109.595L213.893 107.653L211.706 104.304ZM211.5 106.827L201.79 91.9563L198.441 94.1432L208.151 109.014L211.5 106.827ZM201.209 94.7244L206.393 91.339L204.206 87.9898L199.022 91.3752L201.209 94.7244ZM206.393 91.339C207.808 90.4156 208.968 90.0225 209.839 90.0466C210.549 90.0663 211.338 90.3655 212.151 91.6114L215.5 89.4245C214.083 87.2542 212.166 86.1097 209.95 86.0482C207.894 85.9911 205.907 86.8794 204.206 87.9898L206.393 91.339ZM212.151 91.6114C212.689 92.4359 212.849 93.1263 212.832 93.6901C212.814 94.26 212.609 94.8588 212.162 95.4831L215.413 97.8138C216.24 96.6595 216.783 95.3085 216.83 93.8153C216.877 92.3162 216.418 90.8306 215.5 89.4245L212.151 91.6114ZM212.875 98.4283L220.327 102.247L222.152 98.6874L214.699 94.8685L212.875 98.4283ZM225.858 94.7573L223.871 94.5252C223.749 95.5689 224.456 96.5289 225.489 96.7229L225.858 94.7573ZM226.228 91.5922L226.562 89.6203C226.021 89.5287 225.466 89.6631 225.028 89.9921C224.589 90.321 224.305 90.8156 224.241 91.3602L226.228 91.5922ZM228.795 86.9637L228.442 84.995L228.795 86.9637ZM226.254 87.4187L225.902 85.45C225.895 85.4511 225.889 85.4522 225.883 85.4534L226.254 87.4187ZM228.874 76.5933L230.864 76.7933C230.965 75.7826 230.293 74.8563 229.301 74.6394L228.874 76.5933ZM228.587 79.4463L228.359 81.4332C228.891 81.4942 229.425 81.3395 229.842 81.0037C230.258 80.6678 230.523 80.1789 230.577 79.6463L228.587 79.4463ZM227.109 83.6791L226.753 81.7109C226.739 81.7135 226.724 81.7163 226.71 81.7193L227.109 83.6791ZM229.596 83.2302L229.951 85.1984C229.958 85.1973 229.964 85.1961 229.97 85.1948L229.596 83.2302ZM231.607 91.7101C230.043 92.7319 228.064 93.1367 226.227 92.7916L225.489 96.7229C228.356 97.2615 231.38 96.6357 233.794 95.0593L231.607 91.7101ZM227.844 94.9893L228.214 91.8242L224.241 91.3602L223.871 94.5252L227.844 94.9893ZM225.894 93.5641C227.96 93.914 230.343 93.6439 232.175 92.4478L229.988 89.0985C229.207 89.6082 227.911 89.8488 226.562 89.6203L225.894 93.5641ZM232.175 92.4478C233.157 91.8065 234.015 90.9524 234.422 89.851C234.862 88.6596 234.675 87.4387 234.012 86.4232L230.663 88.6102C230.688 88.6484 230.67 88.6357 230.663 88.5774C230.659 88.5507 230.659 88.524 230.662 88.5003C230.665 88.4771 230.67 88.4647 230.67 88.4648C230.665 88.4778 230.553 88.7294 229.988 89.0985L232.175 92.4478ZM234.012 86.4232C233.675 85.9076 233.236 85.4709 232.675 85.1653C232.124 84.8648 231.562 84.7488 231.061 84.7162C230.171 84.6583 229.166 84.8653 228.442 84.995L229.147 88.9323C229.597 88.8518 229.93 88.7897 230.233 88.7481C230.533 88.707 230.703 88.7014 230.801 88.7077C230.883 88.7131 230.844 88.7232 230.76 88.6774C230.667 88.6265 230.639 88.5732 230.663 88.6102L234.012 86.4232ZM228.442 84.995L225.902 85.45L226.607 89.3874L229.147 88.9323L228.442 84.995ZM225.883 85.4534C224.332 85.7461 223.078 85.4816 222.303 84.2945L218.954 86.4814C221.013 89.6349 224.349 89.8136 226.625 89.384L225.883 85.4534ZM222.303 84.2945C221.481 83.0359 221.7 80.9432 224.058 79.403L221.872 76.0538C218.202 78.4501 216.6 82.8769 218.954 86.4814L222.303 84.2945ZM224.058 79.403C225.366 78.5494 226.996 78.2301 228.447 78.5471L229.301 74.6394C226.739 74.0794 224.021 74.6506 221.872 76.0538L224.058 79.403ZM226.884 76.3932L226.597 79.2462L230.577 79.6463L230.864 76.7933L226.884 76.3932ZM228.815 77.4593C227.004 77.2516 225.237 77.4965 223.538 78.6059L225.725 81.9551C226.478 81.4637 227.258 81.3069 228.359 81.4332L228.815 77.4593ZM223.538 78.6059C222.663 79.1769 221.87 79.9683 221.472 80.9944C221.043 82.1028 221.153 83.309 221.83 84.3454L225.179 82.1585C225.179 82.1573 225.207 82.2033 225.215 82.2875C225.224 82.3708 225.207 82.4272 225.202 82.4392C225.2 82.4451 225.218 82.3958 225.302 82.3028C225.385 82.2101 225.52 82.0889 225.725 81.9551L223.538 78.6059ZM221.83 84.3454C222.645 85.5931 223.872 85.9617 224.924 85.986C225.819 86.0067 226.817 85.7795 227.507 85.639L226.71 81.7193C226.287 81.8053 225.958 81.8747 225.649 81.925C225.343 81.9748 225.146 81.9901 225.016 81.9871C224.891 81.9842 224.906 81.9655 224.986 82.0028C225.089 82.0512 225.158 82.1256 225.179 82.1585L221.83 84.3454ZM227.464 85.6473L229.951 85.1984L229.241 81.262L226.753 81.7109L227.464 85.6473ZM229.97 85.1948C230.934 85.0111 231.62 85.0393 232.128 85.2042C232.588 85.3534 233.069 85.667 233.553 86.4077L236.902 84.2208C235.982 82.8113 234.795 81.8642 233.363 81.3996C231.98 80.9507 230.552 81.0119 229.221 81.2656L229.97 85.1948ZM233.553 86.4077C234.406 87.7142 234.333 89.9306 231.607 91.7101L233.794 95.0593C237.942 92.3513 239.224 87.7775 236.902 84.2208L233.553 86.4077ZM243.099 86.1937L241.424 87.2872C242.028 88.2121 243.268 88.4722 244.192 87.8683L243.099 86.1937ZM235.003 73.7949L236.678 72.7014C236.074 71.7766 234.834 71.5164 233.91 72.1203L235.003 73.7949ZM230.823 76.5242L229.149 77.6177C229.752 78.5425 230.992 78.8027 231.917 78.1988L230.823 76.5242ZM229.209 74.0525L228.116 72.3778C227.191 72.9818 226.931 74.2211 227.535 75.1459L229.209 74.0525ZM240.583 66.6256L242.258 65.5322C241.654 64.6073 240.415 64.3471 239.49 64.951L240.583 66.6256ZM242.197 69.0974L243.291 70.772C244.215 70.1681 244.476 68.9288 243.872 68.0039L242.197 69.0974ZM237.977 71.8529L236.884 70.1783C235.959 70.7822 235.699 72.0215 236.302 72.9464L237.977 71.8529ZM246.073 84.2517L247.167 85.9263C248.091 85.3224 248.352 84.0831 247.748 83.1583L246.073 84.2517ZM244.774 85.1003L236.678 72.7014L233.328 74.8884L241.424 87.2872L244.774 85.1003ZM233.91 72.1203L229.73 74.8496L231.917 78.1988L236.096 75.4695L233.91 72.1203ZM232.498 75.4307L230.884 72.959L227.535 75.1459L229.149 77.6177L232.498 75.4307ZM230.303 75.7271L241.677 68.3002L239.49 64.951L228.116 72.3778L230.303 75.7271ZM238.909 67.7191L240.523 70.1908L243.872 68.0039L242.258 65.5322L238.909 67.7191ZM241.104 67.4227L236.884 70.1783L239.071 73.5275L243.291 70.772L241.104 67.4227ZM236.302 72.9464L244.399 85.3452L247.748 83.1583L239.652 70.7594L236.302 72.9464ZM244.98 82.5771L242.006 84.5191L244.192 87.8683L247.167 85.9263L244.98 82.5771ZM257.075 75.0806C255.55 76.0761 253.998 76.2946 252.55 75.8865C251.071 75.4695 249.488 74.3335 248.113 72.2281L244.764 74.4151C246.539 77.1326 248.851 78.9993 251.465 79.7364C254.11 80.4824 256.848 80.0062 259.262 78.4299L257.075 75.0806ZM248.113 72.2281C246.732 70.1121 246.354 68.2457 246.579 66.7715C246.8 65.3256 247.634 64.0089 249.184 62.9966L246.997 59.6474C244.609 61.2069 243.036 63.4685 242.625 66.1687C242.218 68.8406 242.984 71.6881 244.764 74.4151L248.113 72.2281ZM249.184 62.9966C250.731 61.9866 252.275 61.7542 253.691 62.1365C255.136 62.5262 256.693 63.6241 258.067 65.7286L261.416 63.5416C259.641 60.8232 257.343 58.9786 254.734 58.2746C252.097 57.5631 249.389 58.0855 246.997 59.6474L249.184 62.9966ZM258.067 65.7286C259.442 67.8339 259.845 69.7405 259.632 71.2621C259.424 72.7513 258.599 74.0851 257.075 75.0806L259.262 78.4299C261.676 76.8535 263.213 74.5387 263.594 71.8165C263.97 69.1268 263.191 66.2591 261.416 63.5416L258.067 65.7286ZM257.582 75.8576C259.273 74.7539 260.149 73.0308 260.204 71.1062C260.256 69.2608 259.563 67.3314 258.382 65.523L255.033 67.7099C255.925 69.0765 256.228 70.2088 256.205 70.9921C256.185 71.6961 255.915 72.1688 255.395 72.5084L257.582 75.8576ZM258.382 65.523C257.196 63.707 255.718 62.308 254.004 61.6417C252.209 60.9442 250.316 61.121 248.664 62.1995L250.851 65.5487C251.41 65.1839 251.948 65.1342 252.554 65.3699C253.241 65.6368 254.132 66.3307 255.033 67.7099L258.382 65.523ZM248.664 62.1995C247.012 63.278 246.089 64.9407 246.006 66.864C245.926 68.7015 246.613 70.6177 247.799 72.4337L251.148 70.2468C250.247 68.8675 249.97 67.7725 250.002 67.0365C250.03 66.3864 250.292 65.9136 250.851 65.5487L248.664 62.1995ZM247.799 72.4337C248.979 74.2422 250.467 75.6529 252.178 76.3469C253.962 77.0706 255.892 76.9614 257.582 75.8576L255.395 72.5084C254.875 72.8481 254.334 72.905 253.681 72.6402C252.955 72.3457 252.04 71.6134 251.148 70.2468L247.799 72.4337ZM262.34 55.7728L261.247 54.0981C260.322 54.7021 260.061 55.9414 260.665 56.8662L262.34 55.7728ZM265.305 60.3143L263.631 61.4078C264.235 62.3326 265.474 62.5928 266.399 61.9889L265.305 60.3143ZM278.955 62.7811L280.048 64.4557C280.645 64.066 280.989 63.3881 280.952 62.6762C280.915 61.9644 280.501 61.3263 279.867 61.0012L278.955 62.7811ZM275.639 64.9462L274.689 66.7061C275.334 67.0545 276.119 67.0217 276.733 66.6208L275.639 64.9462ZM268.911 61.3139L269.861 59.554C269.215 59.2057 268.431 59.2384 267.817 59.6393L268.911 61.3139ZM266.841 62.6655L265.747 60.9909C264.822 61.5948 264.562 62.8341 265.166 63.7589L266.841 62.6655ZM270.515 68.2922L271.608 69.9668C272.533 69.3629 272.793 68.1236 272.189 67.1987L270.515 68.2922ZM267.541 70.2342L265.866 71.3276C266.47 72.2525 267.709 72.5127 268.634 71.9088L267.541 70.2342ZM257.831 55.3636L256.737 53.689C255.812 54.2929 255.552 55.5322 256.156 56.4571L257.831 55.3636ZM271.502 58.9622L269.877 57.7969C269.538 58.27 269.422 58.8673 269.559 59.433C269.696 59.9987 270.072 60.4767 270.59 60.7422L271.502 58.9622ZM260.665 56.8662L263.631 61.4078L266.98 59.2208L264.015 54.6793L260.665 56.8662ZM266.399 61.9889L268.328 60.7293L266.141 57.38L264.212 58.6397L266.399 61.9889ZM268.328 60.7293C269.48 59.9772 270.498 58.9743 270.935 57.6481C271.403 56.227 271.078 54.83 270.302 53.641L266.953 55.8279C267.093 56.0425 267.134 56.1821 267.146 56.2503C267.156 56.3082 267.152 56.3477 267.136 56.3967C267.095 56.5221 266.898 56.8855 266.141 57.38L268.328 60.7293ZM270.302 53.641C269.512 52.4311 268.346 51.5756 266.799 51.5536C265.464 51.5347 264.217 52.1585 263.176 52.8385L265.363 56.1877C265.768 55.9231 266.089 55.7553 266.339 55.6575C266.588 55.5596 266.712 55.5528 266.742 55.5532C266.754 55.5534 266.749 55.5545 266.733 55.55C266.717 55.5454 266.708 55.5398 266.709 55.5408C266.714 55.5439 266.806 55.6028 266.953 55.8279L270.302 53.641ZM263.176 52.8385L261.247 54.0981L263.433 57.4474L265.363 56.1877L263.176 52.8385ZM277.861 61.1065L274.546 63.2716L276.733 66.6208L280.048 64.4557L277.861 61.1065ZM276.589 63.1862L269.861 59.554L267.96 63.0739L274.689 66.7061L276.589 63.1862ZM267.817 59.6393L265.747 60.9909L267.934 64.3401L270.004 62.9886L267.817 59.6393ZM265.166 63.7589L268.84 69.3856L272.189 67.1987L268.515 61.572L265.166 63.7589ZM269.421 66.6176L266.447 68.5596L268.634 71.9088L271.608 69.9668L269.421 66.6176ZM269.215 69.1407L259.505 54.2701L256.156 56.4571L265.866 71.3276L269.215 69.1407ZM258.924 57.0382L264.109 53.6528L261.922 50.3036L256.737 53.689L258.924 57.0382ZM264.109 53.6528C265.523 52.7294 266.683 52.3363 267.554 52.3605C268.265 52.3802 269.053 52.6793 269.866 53.9253L273.216 51.7383C271.798 49.568 269.881 48.4235 267.665 48.362C265.61 48.305 263.622 49.1932 261.922 50.3036L264.109 53.6528ZM269.866 53.9253C270.405 54.7497 270.565 55.4401 270.547 56.0039C270.529 56.5738 270.325 57.1727 269.877 57.7969L273.128 60.1276C273.955 58.9733 274.498 57.6223 274.545 56.1292C274.592 54.63 274.134 53.1444 273.216 51.7383L269.866 53.9253ZM270.59 60.7422L278.043 64.561L279.867 61.0012L272.415 57.1823L270.59 60.7422ZM283.515 59.8035L281.84 60.897C282.444 61.8219 283.683 62.082 284.608 61.4781L283.515 59.8035ZM279.959 54.3577L281.634 53.2642C281.472 53.0164 281.257 52.8076 281.005 52.6529L279.959 54.3577ZM269.344 47.846L268.25 46.1713C267.676 46.5461 267.334 47.1887 267.344 47.8742C267.354 48.5596 267.714 49.1923 268.298 49.5507L269.344 47.846ZM272.499 45.7859L273.632 44.1378C272.964 43.6784 272.084 43.6679 271.405 44.1113L272.499 45.7859ZM276.348 48.432L277.522 46.8132C277.508 46.8032 277.495 46.7935 277.481 46.7839L276.348 48.432ZM279.786 50.8879L278.642 52.5285C279.311 52.995 280.196 53.0084 280.879 52.5625L279.786 50.8879ZM279.866 50.8354L280.96 52.51C281.642 52.0641 281.986 51.2482 281.828 50.448L279.866 50.8354ZM279.04 46.6737L277.076 47.0483C277.079 47.0649 277.082 47.0814 277.086 47.0979L279.04 46.6737ZM278.166 42.0856L277.072 40.411C276.393 40.8543 276.049 41.6637 276.201 42.4602L278.166 42.0856ZM281.26 40.0648L283.242 39.7964C283.15 39.1165 282.716 38.5313 282.092 38.246C281.468 37.9607 280.741 38.0151 280.167 38.3902L281.26 40.0648ZM282.933 52.4157L280.951 52.6841C280.991 52.9785 281.096 53.2604 281.258 53.5092L282.933 52.4157ZM286.489 57.8615L287.582 59.5361C288.507 58.9322 288.767 57.6929 288.164 56.7681L286.489 57.8615ZM285.189 58.7101L281.634 53.2642L278.284 55.4511L281.84 60.897L285.189 58.7101ZM281.005 52.6529L270.389 46.1412L268.298 49.5507L278.913 56.0625L281.005 52.6529ZM270.437 49.5206L273.592 47.4605L271.405 44.1113L268.25 46.1713L270.437 49.5206ZM271.366 47.4339L275.215 50.0801L277.481 46.7839L273.632 44.1378L271.366 47.4339ZM275.173 50.0509C276.319 50.882 277.416 51.6736 278.642 52.5285L280.929 49.2472C279.735 48.4148 278.664 47.6414 277.522 46.8132L275.173 50.0509ZM280.879 52.5625L280.96 52.51L278.773 49.1608L278.692 49.2133L280.879 52.5625ZM281.828 50.448C281.551 49.0444 281.3 47.6533 280.995 46.2495L277.086 47.0979C277.381 48.4558 277.61 49.7319 277.904 51.2228L281.828 50.448ZM281.005 46.2991L280.13 41.711L276.201 42.4602L277.076 47.0483L281.005 46.2991ZM279.259 43.7602L282.354 41.7394L280.167 38.3902L277.072 40.411L279.259 43.7602ZM279.278 40.3333L280.951 52.6841L284.915 52.1473L283.242 39.7964L279.278 40.3333ZM281.258 53.5092L284.814 58.955L288.164 56.7681L284.608 51.3222L281.258 53.5092ZM285.396 56.1869L282.421 58.1289L284.608 61.4781L287.582 59.5361L285.396 56.1869Z" fill="white" mask="url(#path-2-outside-1_1604_1766)"/>
<line x1="304.946" y1="32.0748" x2="336.47" y2="11.491" stroke="white" stroke-width="2" stroke-dasharray="8 8"/>
</svg>
