<svg width="16" height="16" viewBox="0 0 16 16" fill="none" xmlns="http://www.w3.org/2000/svg">
<path d="M5.99984 9.33335L2.6665 6.00002M2.6665 6.00002L5.99984 2.66669M2.6665 6.00002H9.6665C10.148 6.00002 10.6248 6.09486 11.0697 6.27913C11.5145 6.4634 11.9187 6.73348 12.2592 7.07396C12.5997 7.41444 12.8698 7.81865 13.0541 8.26351C13.2383 8.70837 13.3332 9.18517 13.3332 9.66669C13.3332 10.1482 13.2383 10.625 13.0541 11.0699C12.8698 11.5147 12.5997 11.9189 12.2592 12.2594C11.9187 12.5999 11.5145 12.87 11.0697 13.0542C10.6248 13.2385 10.148 13.3334 9.6665 13.3334H7.33317" stroke="black" stroke-width="1.5" stroke-linecap="round" stroke-linejoin="round"/>
</svg>
