<svg width="741" height="176" viewBox="0 0 741 176" fill="none" xmlns="http://www.w3.org/2000/svg">
<path d="M140.868 100.646C145.941 140.138 80.3269 158.038 65.3669 120.721C65.3669 120.721 85.576 118.531 106.048 113.087C126.519 107.644 140.868 100.646 140.868 100.646Z" fill="white"/>
<path d="M140.868 100.646C145.941 140.138 80.3269 158.038 65.3669 120.721C65.3669 120.721 85.576 118.531 106.048 113.087C126.519 107.644 140.868 100.646 140.868 100.646Z" fill="#00503F" fill-opacity="0.08"/>
<path d="M168.804 83.7484C173.05 132.672 133.977 167.402 89.7978 167.99C45.6184 168.578 15.5102 142.882 8.90941 97.7038C2.30866 52.5258 39.8411 11.9387 81.5704 8.29663C123.3 4.65455 164.559 34.8243 168.804 83.7484Z" fill="white"/>
<path d="M168.804 83.7484C173.05 132.672 133.977 167.402 89.7978 167.99C45.6184 168.578 15.5102 142.882 8.90941 97.7038C2.30866 52.5258 39.8411 11.9387 81.5704 8.29663C123.3 4.65455 164.559 34.8243 168.804 83.7484Z" fill="#00503F" fill-opacity="0.08"/>
<path d="M51.1942 93.5478C55.8864 85.7831 72.1907 76.175 85.4486 85.6606M142.529 72.7531C134.393 67.2254 118.383 69.3312 112.341 80.9715M65.3669 120.721C80.3269 158.038 145.941 140.138 140.868 100.646C140.868 100.646 126.519 107.644 106.048 113.087C85.576 118.531 65.3669 120.721 65.3669 120.721ZM168.804 83.7484C173.05 132.672 133.977 167.402 89.7978 167.99C45.6184 168.578 15.5102 142.882 8.90941 97.7038C2.30866 52.5258 39.8411 11.9387 81.5704 8.29663C123.3 4.65455 164.559 34.8243 168.804 83.7484Z" stroke="#121212" stroke-width="16"/>
<path d="M253.838 100.646C258.911 140.138 193.297 158.038 178.337 120.721C178.337 120.721 198.546 118.531 219.017 113.087C239.489 107.644 253.838 100.646 253.838 100.646Z" fill="white"/>
<path d="M253.838 100.646C258.911 140.138 193.297 158.038 178.337 120.721C178.337 120.721 198.546 118.531 219.017 113.087C239.489 107.644 253.838 100.646 253.838 100.646Z" fill="#00503F" fill-opacity="0.08"/>
<path d="M281.774 83.7484C286.019 132.672 246.947 167.402 202.767 167.99C158.588 168.578 128.48 142.882 121.879 97.7038C115.278 52.5258 152.811 11.9387 194.54 8.29663C236.27 4.65455 277.529 34.8243 281.774 83.7484Z" fill="white"/>
<path d="M281.774 83.7484C286.019 132.672 246.947 167.402 202.767 167.99C158.588 168.578 128.48 142.882 121.879 97.7038C115.278 52.5258 152.811 11.9387 194.54 8.29663C236.27 4.65455 277.529 34.8243 281.774 83.7484Z" fill="#00503F" fill-opacity="0.08"/>
<path d="M164.164 93.5478C168.856 85.7831 185.16 76.175 198.418 85.6606M255.499 72.7531C247.363 67.2254 231.353 69.3312 225.31 80.9715M178.337 120.721C193.297 158.038 258.911 140.138 253.838 100.646C253.838 100.646 239.489 107.644 219.017 113.087C198.546 118.531 178.337 120.721 178.337 120.721ZM281.774 83.7484C286.019 132.672 246.947 167.402 202.767 167.99C158.588 168.578 128.48 142.882 121.879 97.7038C115.278 52.5258 152.811 11.9387 194.54 8.29663C236.27 4.65455 277.529 34.8243 281.774 83.7484Z" stroke="#121212" stroke-width="16"/>
<path d="M393.776 83.7604C397.996 132.546 359.159 167.177 315.245 167.763C271.332 168.35 241.405 142.726 234.844 97.6762C228.283 52.6263 265.59 12.1541 307.068 8.52235C348.546 4.89059 389.556 34.9749 393.776 83.7604Z" fill="white"/>
<path d="M393.776 83.7604C397.996 132.546 359.159 167.177 315.245 167.763C271.332 168.35 241.405 142.726 234.844 97.6762C228.283 52.6263 265.59 12.1541 307.068 8.52235C348.546 4.89059 389.556 34.9749 393.776 83.7604Z" fill="#00503F" fill-opacity="0.08"/>
<path d="M319.038 125.035C313.95 113.101 319.702 101.425 329.482 97.914C339.262 94.4028 348.137 98.5477 353.432 109.363C358.727 120.179 353.813 133.205 344.837 137.295C335.861 141.385 324.126 136.968 319.038 125.035Z" fill="white"/>
<path d="M319.038 125.035C313.95 113.101 319.702 101.425 329.482 97.914C339.262 94.4028 348.137 98.5477 353.432 109.363C358.727 120.179 353.813 133.205 344.837 137.295C335.861 141.385 324.126 136.968 319.038 125.035Z" fill="#00503F" fill-opacity="0.08"/>
<path d="M342.354 49.6981L347.572 69.6465M289.396 66.2342L298.527 86.97M393.776 83.7604C397.996 132.546 359.159 167.177 315.245 167.763C271.332 168.35 241.405 142.726 234.844 97.6762C228.283 52.6263 265.59 12.1541 307.068 8.52235C348.546 4.89059 389.556 34.9749 393.776 83.7604ZM319.038 125.035C313.95 113.101 319.702 101.425 329.482 97.914C339.262 94.4028 348.137 98.5477 353.432 109.363C358.727 120.179 353.813 133.205 344.837 137.295C335.861 141.385 324.126 136.968 319.038 125.035Z" stroke="#121212" stroke-width="16"/>
<path d="M478.807 100.646C483.88 140.138 418.266 158.038 403.306 120.721C403.306 120.721 423.515 118.531 443.987 113.087C464.459 107.644 478.807 100.646 478.807 100.646Z" fill="white"/>
<path d="M478.807 100.646C483.88 140.138 418.266 158.038 403.306 120.721C403.306 120.721 423.515 118.531 443.987 113.087C464.459 107.644 478.807 100.646 478.807 100.646Z" fill="#00503F" fill-opacity="0.08"/>
<path d="M506.744 83.7484C510.989 132.672 471.917 167.402 427.737 167.99C383.558 168.578 353.45 142.882 346.849 97.7038C340.248 52.5258 377.781 11.9387 419.51 8.29663C461.239 4.65455 502.499 34.8243 506.744 83.7484Z" fill="white"/>
<path d="M506.744 83.7484C510.989 132.672 471.917 167.402 427.737 167.99C383.558 168.578 353.45 142.882 346.849 97.7038C340.248 52.5258 377.781 11.9387 419.51 8.29663C461.239 4.65455 502.499 34.8243 506.744 83.7484Z" fill="#00503F" fill-opacity="0.08"/>
<path d="M389.134 93.5478C393.826 85.7831 410.13 76.175 423.388 85.6606M480.469 72.7531C472.332 67.2254 456.323 69.3312 450.28 80.9715M403.306 120.721C418.266 158.038 483.88 140.138 478.807 100.646C478.807 100.646 464.459 107.644 443.987 113.087C423.515 118.531 403.306 120.721 403.306 120.721ZM506.744 83.7484C510.989 132.672 471.917 167.402 427.737 167.99C383.558 168.578 353.45 142.882 346.849 97.7038C340.248 52.5258 377.781 11.9387 419.51 8.29663C461.239 4.65455 502.499 34.8243 506.744 83.7484Z" stroke="#121212" stroke-width="16"/>
<path d="M591.777 100.646C596.85 140.138 531.236 158.038 516.276 120.721C516.276 120.721 536.485 118.531 556.957 113.087C577.428 107.644 591.777 100.646 591.777 100.646Z" fill="white"/>
<path d="M591.777 100.646C596.85 140.138 531.236 158.038 516.276 120.721C516.276 120.721 536.485 118.531 556.957 113.087C577.428 107.644 591.777 100.646 591.777 100.646Z" fill="#00503F" fill-opacity="0.08"/>
<path d="M619.714 83.7484C623.959 132.672 584.886 167.402 540.707 167.99C496.528 168.578 466.419 142.882 459.819 97.7038C453.218 52.5258 490.75 11.9387 532.48 8.29663C574.209 4.65455 615.468 34.8243 619.714 83.7484Z" fill="white"/>
<path d="M619.714 83.7484C623.959 132.672 584.886 167.402 540.707 167.99C496.528 168.578 466.419 142.882 459.819 97.7038C453.218 52.5258 490.75 11.9387 532.48 8.29663C574.209 4.65455 615.468 34.8243 619.714 83.7484Z" fill="#00503F" fill-opacity="0.08"/>
<path d="M502.103 93.5478C506.796 85.7831 523.1 76.175 536.358 85.6606M593.438 72.7531C585.302 67.2254 569.292 69.3312 563.25 80.9715M516.276 120.721C531.236 158.038 596.85 140.138 591.777 100.646C591.777 100.646 577.428 107.644 556.957 113.087C536.485 118.531 516.276 120.721 516.276 120.721ZM619.714 83.7484C623.959 132.672 584.886 167.402 540.707 167.99C496.528 168.578 466.419 142.882 459.819 97.7038C453.218 52.5258 490.75 11.9387 532.48 8.29663C574.209 4.65455 615.468 34.8243 619.714 83.7484Z" stroke="#121212" stroke-width="16"/>
<path d="M704.747 100.646C709.82 140.138 644.206 158.038 629.246 120.721C629.246 120.721 649.455 118.531 669.927 113.087C690.398 107.644 704.747 100.646 704.747 100.646Z" fill="white"/>
<path d="M704.747 100.646C709.82 140.138 644.206 158.038 629.246 120.721C629.246 120.721 649.455 118.531 669.927 113.087C690.398 107.644 704.747 100.646 704.747 100.646Z" fill="#00503F" fill-opacity="0.08"/>
<path d="M732.683 83.7484C736.928 132.672 697.856 167.402 653.677 167.99C609.497 168.578 579.389 142.882 572.788 97.7038C566.188 52.5258 603.72 11.9387 645.449 8.29663C687.179 4.65455 728.438 34.8243 732.683 83.7484Z" fill="white"/>
<path d="M732.683 83.7484C736.928 132.672 697.856 167.402 653.677 167.99C609.497 168.578 579.389 142.882 572.788 97.7038C566.188 52.5258 603.72 11.9387 645.449 8.29663C687.179 4.65455 728.438 34.8243 732.683 83.7484Z" fill="#00503F" fill-opacity="0.08"/>
<path d="M615.073 93.5478C619.765 85.7831 636.07 76.175 649.328 85.6606M706.408 72.7531C698.272 67.2254 682.262 69.3312 676.22 80.9715M629.246 120.721C644.206 158.038 709.82 140.138 704.747 100.646C704.747 100.646 690.398 107.644 669.927 113.087C649.455 118.531 629.246 120.721 629.246 120.721ZM732.683 83.7484C736.928 132.672 697.856 167.402 653.677 167.99C609.497 168.578 579.389 142.882 572.788 97.7038C566.188 52.5258 603.72 11.9387 645.449 8.29663C687.179 4.65455 728.438 34.8243 732.683 83.7484Z" stroke="#121212" stroke-width="16"/>
</svg>
