<svg width="177" height="176" viewBox="0 0 177 176" fill="none" xmlns="http://www.w3.org/2000/svg">
<path d="M167.776 83.7604C171.996 132.546 133.159 167.177 89.2454 167.763C45.3321 168.35 15.4053 142.726 8.84429 97.6762C2.28331 52.6263 39.5896 12.1541 81.0676 8.52235C122.546 4.89059 163.556 34.9749 167.776 83.7604Z" fill="white"/>
<path d="M167.776 83.7604C171.996 132.546 133.159 167.177 89.2454 167.763C45.3321 168.35 15.4053 142.726 8.84429 97.6762C2.28331 52.6263 39.5896 12.1541 81.0676 8.52235C122.546 4.89059 163.556 34.9749 167.776 83.7604Z" fill="#00503F" fill-opacity="0.08"/>
<path d="M93.0377 125.035C87.9496 113.101 93.7018 101.425 103.482 97.914C113.262 94.4028 122.137 98.5477 127.432 109.363C132.727 120.179 127.813 133.205 118.837 137.295C109.861 141.385 98.1257 136.968 93.0377 125.035Z" fill="white"/>
<path d="M93.0377 125.035C87.9496 113.101 93.7018 101.425 103.482 97.914C113.262 94.4028 122.137 98.5477 127.432 109.363C132.727 120.179 127.813 133.205 118.837 137.295C109.861 141.385 98.1257 136.968 93.0377 125.035Z" fill="#00503F" fill-opacity="0.08"/>
<path d="M116.354 49.6981L121.572 69.6465M63.3964 66.2342L72.527 86.97M167.776 83.7604C171.996 132.546 133.159 167.177 89.2454 167.763C45.3321 168.35 15.4053 142.726 8.84429 97.6762C2.28331 52.6263 39.5896 12.1541 81.0676 8.52235C122.546 4.89059 163.556 34.9749 167.776 83.7604ZM93.0377 125.035C87.9496 113.101 93.7018 101.425 103.482 97.914C113.262 94.4028 122.137 98.5477 127.432 109.363C132.727 120.179 127.813 133.205 118.837 137.295C109.861 141.385 98.1257 136.968 93.0377 125.035Z" stroke="#121212" stroke-width="16"/>
</svg>
