<svg width="69" height="119" viewBox="0 0 69 119" fill="none" xmlns="http://www.w3.org/2000/svg">
<mask id="path-1-inside-1_1604_2206" fill="white">
<path d="M0.720703 1H68.2807V119H0.720703V1Z"/>
</mask>
<path d="M68.2807 115H0.720703V123H68.2807V115Z" fill="#96FF00" mask="url(#path-1-inside-1_1604_2206)"/>
<path d="M7.5607 26.2C9.8407 10.84 23.1607 0.639999 41.0407 0.639999C58.2007 0.639999 68.2807 9.4 68.2807 22.36C68.2807 35.92 58.5607 45.04 53.6407 49.48L41.6407 60.28H65.2807L62.8807 79.36H0.720703L1.8007 70.48L36.1207 38.08C39.6007 34.84 43.3207 31.12 43.3207 26.2C43.3207 22.6 40.3207 20.32 36.4807 20.32C30.9607 20.32 27.7207 24.76 27.7207 29.32L7.5607 26.2Z" fill="#96FF00"/>
</svg>
