<svg width="1537" height="1844" viewBox="0 0 1537 1844" fill="none" xmlns="http://www.w3.org/2000/svg">
<path d="M756.84 408.212L679.013 4M896.279 301.072L946.542 98.1538M896.279 1315.66L1003.29 1840M756.84 1476.37L722.79 1695.52M1217.31 677.223L1527 515.353M361.22 677.223L11 456.912M208.81 758.854H43.4278M439.047 1163.07L139.09 1414.68M1251.36 1082.59L1489.71 1203.77M802.677 677.223L1053.42 456.912L978.638 800.597L1282.17 886.518L978.638 972.44L1053.42 1203.77L826.872 1082.59L606.921 1382.22L633.315 1025.31L208.81 950.408L568.758 800.597L499.145 474.537L802.677 677.223Z" stroke="#96FF00" stroke-width="40"/>
</svg>
