<svg width="120" height="120" viewBox="0 0 120 120" fill="none" xmlns="http://www.w3.org/2000/svg">
<rect width="120" height="120" fill="white"/>
<path d="M104.131 62.1095C100.253 38.1989 83.6274 20.6332 68.8228 24.8043C65.7092 25.6856 63.2418 27.7418 53.3133 38.0227C48.1435 43.3688 46.5573 44.6613 45.6761 44.3675C36.0413 40.6076 29.9902 45.3075 30.049 56.5872C30.049 62.5795 30.3429 64.1657 32.2816 70.2168C32.8103 71.803 26.1128 78.0303 17.7118 86.9013C10.9558 93.0699 18.0642 94.9498 28.2277 91.6599C45.7347 86.0201 43.0323 86.2551 49.0834 89.6625C59.0118 95.2436 71.9367 97.2998 77.8115 94.2448C78.9865 93.6574 79.6327 92.4237 79.5152 91.0725C79.5152 91.0137 78.9865 85.2563 78.9865 85.3151C87.035 82.0839 96.7285 78.7941 101.311 75.5042C105.893 72.1555 105.247 68.9243 104.131 62.1095ZM28.1692 86.1963C27.523 86.1963 35.2189 77.7366 35.7477 77.1491C35.8652 77.8541 37.5101 80.4977 39.86 82.0839C39.9188 82.3777 29.2267 86.1963 28.1692 86.1963ZM87.6811 73.3305C84.3912 74.0942 74.0516 78.2066 70.4092 80.2627C67.7655 81.7315 67.6479 81.9077 68.0004 83.7876C69.2929 90.9549 69.6455 90.5437 63.4182 88.9575C49.3186 85.3151 32.9864 57.6447 39.4487 48.3037C41.2699 45.66 43.7962 49.0086 43.9724 54.3547C44.1487 59.9946 49.1422 69.2768 52.6671 71.568C54.7233 72.9192 55.7807 71.2743 55.2519 70.2168C48.4371 57.6447 49.5534 54.296 50.0234 52.4161C50.0234 52.4161 65.0043 37.259 66.238 35.9078C70.7616 31.0904 74.7565 30.8554 79.1626 35.0853C87.2699 42.9576 93.4973 55.471 95.0835 66.9269C95.436 69.9818 92.9685 72.1555 87.6811 73.3305Z" fill="#576E22"/>
<path d="M88.0925 64.4012C81.3364 67.9849 67.8829 43.0756 74.1102 38.552C76.9301 36.4958 72.5827 33.9696 70.2328 36.6133C66.2966 41.0782 70.1155 65.5175 86.33 68.3374C89.2675 68.8661 91.6761 68.3374 91.9111 66.3399C92.1461 64.6362 89.9137 63.4025 88.0925 64.4012Z" fill="#576E22"/>
</svg>
