<svg width="80" height="80" viewBox="0 0 80 80" fill="none" xmlns="http://www.w3.org/2000/svg">
<path d="M59.9997 36.6667V20C59.9997 18.2319 59.2973 16.5362 58.0471 15.286C56.7968 14.0357 55.1011 13.3333 53.333 13.3333C51.5649 13.3333 49.8692 14.0357 48.619 15.286C47.3687 16.5362 46.6664 18.2319 46.6664 20M46.6664 33.3333V13.3333C46.6664 11.5652 45.964 9.86953 44.7137 8.61929C43.4635 7.36904 41.7678 6.66666 39.9997 6.66666C38.2316 6.66666 36.5359 7.36904 35.2856 8.61929C34.0354 9.86953 33.333 11.5652 33.333 13.3333V20M33.333 20V35M33.333 20C33.333 18.2319 32.6306 16.5362 31.3804 15.286C30.1302 14.0357 28.4345 13.3333 26.6664 13.3333C24.8982 13.3333 23.2026 14.0357 21.9523 15.286C20.7021 16.5362 19.9997 18.2319 19.9997 20V46.6667M59.9997 26.6667C59.9997 24.8986 60.7021 23.2029 61.9523 21.9526C63.2026 20.7024 64.8983 20 66.6664 20C68.4345 20 70.1302 20.7024 71.3804 21.9526C72.6306 23.2029 73.333 24.8986 73.333 26.6667V46.6667C73.333 53.7391 70.5235 60.5219 65.5225 65.5228C60.5216 70.5238 53.7388 73.3333 46.6664 73.3333H39.9997C30.6664 73.3333 24.9997 70.4667 20.033 65.5333L8.03303 53.5333C6.88614 52.2631 6.27165 50.6006 6.31677 48.8898C6.3619 47.179 7.06318 45.5512 8.27543 44.3432C9.48767 43.1352 11.118 42.4397 12.8289 42.4007C14.5398 42.3616 16.2002 42.982 17.4664 44.1333L23.333 50" stroke="#FFAB91" stroke-width="8" stroke-linecap="round" stroke-linejoin="round"/>
</svg>
