<svg width="80" height="80" viewBox="0 0 80 80" fill="none" xmlns="http://www.w3.org/2000/svg">
<path d="M39.9994 16.6667C44.9994 11.6667 49.1327 10 54.9994 10C59.8617 10 64.5248 11.9315 67.963 15.3697C71.4011 18.8079 73.3327 23.471 73.3327 28.3333C73.3327 35.9667 68.2994 41.8 63.3327 46.6667L39.9994 70L16.666 46.6667C11.666 41.8333 6.66602 36 6.66602 28.3333C6.66602 23.471 8.59756 18.8079 12.0357 15.3697C15.4739 11.9315 20.137 10 24.9993 10C30.866 10 34.9994 11.6667 39.9994 16.6667ZM39.9994 16.6667L30.1327 26.5333C29.4554 27.2057 28.9179 28.0054 28.5511 28.8864C28.1843 29.7674 27.9954 30.7123 27.9954 31.6667C27.9954 32.621 28.1843 33.5659 28.5511 34.4469C28.9179 35.3279 29.4554 36.1276 30.1327 36.8C32.866 39.5333 37.2327 39.6333 40.1327 37.0333L47.0327 30.7C48.7622 29.1306 51.014 28.2613 53.3493 28.2613C55.6847 28.2613 57.9365 29.1306 59.666 30.7L69.5327 39.5667M59.9994 50L53.3327 43.3333M49.9994 60L43.3327 53.3333" stroke="#96FF00" stroke-width="8" stroke-linecap="round" stroke-linejoin="round"/>
</svg>
